<?xml version="1.0" encoding="UTF-8"?>
<svg version="1.1" xmlns="http://www.w3.org/2000/svg" width="197" height="197">
<path d="M0 0 C65.01 0 130.02 0 197 0 C197 65.01 197 130.02 197 197 C131.99 197 66.98 197 0 197 C0 131.99 0 66.98 0 0 Z " fill="#0ED1E6" transform="translate(0,0)"/>
<path d="M0 0 C0.66 0 1.32 0 2 0 C2.3309668 0.61182129 2.66193359 1.22364258 3.00292969 1.85400391 C11.200242 17.00592341 11.200242 17.00592341 19.44360352 32.1328125 C27.37917684 46.64233766 35.17311429 61.22722806 42.96862793 75.81225586 C49.7510323 88.50114304 56.53597488 101.18783966 63.4375 113.8125 C65.29229993 117.20798797 67.1466658 120.60371175 69 124 C69.42490723 124.77843262 69.84981445 125.55686523 70.28759766 126.35888672 C71.44638674 128.48677804 72.59928938 130.61773191 73.75 132.75 C74.08572021 133.36464111 74.42144043 133.97928223 74.76733398 134.61254883 C77 138.76994771 77 138.76994771 77 141 C63.47 141 49.94 141 36 141 C32.04 134.07 32.04 134.07 28 127 C24.27039986 120.61679293 24.27039986 120.61679293 20.51953125 114.24609375 C20.05933594 113.45847656 19.59914063 112.67085938 19.125 111.859375 C18.71507813 111.16295898 18.30515625 110.46654297 17.8828125 109.74902344 C17 108 17 108 17 106 C1.49 106 -14.02 106 -30 106 C-28.60862897 101.82588692 -27.43833894 98.68245066 -25.3828125 94.9375 C-24.86388428 93.98609131 -24.34495605 93.03468262 -23.81030273 92.05444336 C-23.25415283 91.04647705 -22.69800293 90.03851074 -22.125 89 C-21.55144775 87.95142822 -20.97789551 86.90285645 -20.38696289 85.82250977 C-19.19137699 83.63729266 -17.99384098 81.45314146 -16.79443359 79.27001953 C-15.06017697 76.10966127 -13.33487614 72.94461428 -11.61328125 69.77734375 C-2.99091588 53.92071766 -2.99091588 53.92071766 1 47 C1.66 47 2.32 47 3 47 C3.3309668 47.64211426 3.66193359 48.28422852 4.00292969 48.94580078 C9.87134804 60.31712348 15.76579128 71.66484138 21.9375 82.875 C26.61344659 91.37923 31.15177363 99.95045083 35.625 108.5625 C36.22948975 109.72313965 36.83397949 110.8837793 37.45678711 112.07958984 C38.02018799 113.16836426 38.58358887 114.25713867 39.1640625 115.37890625 C39.66373535 116.3438501 40.1634082 117.30879395 40.67822266 118.30297852 C41.91737708 120.831412 42.99351102 123.37148085 44 126 C48.455 125.505 48.455 125.505 53 125 C45.85243575 111.13289021 38.60386766 97.33656169 31.09765625 83.66015625 C27.69598822 77.4593014 24.34725949 71.23034734 21 65 C14.71485516 53.30688995 8.37297169 41.64544689 2 30 C-0.83881763 33.381448 -3.08279937 36.72832365 -5.14453125 40.62890625 C-5.73137695 41.73242432 -6.31822266 42.83594238 -6.92285156 43.97290039 C-7.3840741 44.84907516 -7.3840741 44.84907516 -7.85461426 45.74295044 C-8.83156017 47.59870571 -9.81487144 49.45096309 -10.79980469 51.30249023 C-12.17912187 53.89694379 -13.55586603 56.4927342 -14.93017578 59.08984375 C-37.54907237 101.83137449 -37.54907237 101.83137449 -47.9765625 117.89453125 C-49.3790604 120.52691974 -49.3790604 120.52691974 -50 126 C-42.08 126 -34.16 126 -26 126 C-28 131 -28 131 -33 140 C-46.53 140 -60.06 140 -74 140 C-72.51870378 135.55611135 -71.13081567 132.1044779 -68.9453125 128.0625 C-68.336875 126.93199219 -67.7284375 125.80148438 -67.1015625 124.63671875 C-66.44282425 123.42441617 -65.78396718 122.21217816 -65.125 121 C-64.44233004 119.7358813 -63.76004303 118.47155573 -63.078125 117.20703125 C-58.60053925 108.91315009 -54.08653023 100.63891374 -49.56103516 92.37109375 C-45.16913447 84.33851932 -40.84906513 76.26791584 -36.53475952 68.19351196 C-32.33531282 60.3352232 -28.09815395 52.49913636 -23.8125 44.6875 C-19.15454172 36.19177892 -14.63387411 27.63006412 -10.18286133 19.02416992 C-6.87470722 12.63443172 -3.46845873 6.30414783 0 0 Z " fill="#ECF9FC" transform="translate(99,17)"/>
<path d="M0 0 C10.89 0 21.78 0 33 0 C33 65.01 33 130.02 33 197 C-32.01 197 -97.02 197 -164 197 C-164 185.12 -164 173.24 -164 161 C-163.67 161 -163.34 161 -163 161 C-162.6596875 162.918125 -162.6596875 162.918125 -162.3125 164.875 C-159.9202095 175.5729188 -154.62816559 183.79099646 -145.5 189.75 C-140.0631582 193.14039011 -135.75644393 195.24372707 -129.27842712 195.27415466 C-127.56502136 195.28911736 -127.56502136 195.28911736 -125.81700134 195.30438232 C-124.57277908 195.305047 -123.32855682 195.30571167 -122.04663086 195.30639648 C-120.07009018 195.31888176 -120.07009018 195.31888176 -118.05361938 195.33161926 C-114.44371217 195.353532 -110.83388966 195.36235961 -107.22392344 195.36744571 C-104.96391921 195.37109524 -102.70393695 195.37733861 -100.44394112 195.3844471 C-92.54570676 195.40893723 -84.64753795 195.42199107 -76.74926758 195.42553711 C-69.41074623 195.42916481 -62.07264505 195.4590059 -54.73425192 195.50094169 C-48.41722861 195.53576267 -42.10034364 195.55108764 -35.78322512 195.55178314 C-32.0178995 195.55257242 -28.25300146 195.56114688 -24.4877758 195.58978081 C-20.9392177 195.61616286 -17.39143533 195.61805663 -13.84282303 195.60212517 C-11.93906478 195.59947645 -10.03532027 195.62136017 -8.13169861 195.64431763 C3.73068041 195.54464543 13.21626311 191.83838317 21.80078125 183.61328125 C27.28352055 177.09826776 31.11017542 169.0892779 31.14717102 160.54344177 C31.15432632 159.40944443 31.16148163 158.27544708 31.16885376 157.10708618 C31.17154266 155.86188202 31.17423157 154.61667786 31.17700195 153.33374023 C31.18685875 151.36744911 31.18685875 151.36744911 31.19691467 149.36143494 C31.21794525 145.0105003 31.22831952 140.65956537 31.23828125 136.30859375 C31.24232988 134.80839584 31.24644683 133.30819811 31.25063133 131.80800056 C31.26968473 124.75576728 31.28391264 117.70354443 31.2922433 110.65129036 C31.30200168 102.52543439 31.32828368 94.39985184 31.36874419 86.27409214 C31.39897725 79.98517777 31.41371916 73.69634143 31.41702431 67.40735584 C31.4193676 63.65553054 31.42823247 59.90399726 31.45348549 56.15225029 C31.47689615 52.61695655 31.480948 49.08214437 31.47072411 45.54679298 C31.46999855 43.64502439 31.48900046 41.74327955 31.50878906 39.84161377 C31.44000005 28.41211304 28.19005231 19.15977485 20 11 C13.80874689 6.17625514 7.53323814 3.09942702 0 1 C0 0.67 0 0.34 0 0 Z " fill="#CBF5F9" transform="translate(164,0)"/>
<path d="M0 0 C2.3125 0.9375 2.3125 0.9375 4 3 C4.13387142 4.3501075 4.20926858 5.70638321 4.25 7.0625 C4.68002867 13.47097608 8.54672521 17.64442045 13 22 C14.96996343 23.05794332 16.96270075 24.07836462 19 25 C19.72159424 26.64363134 20.39351421 28.31050386 21 30 C23.54267925 31.95590712 26.0194701 32.1624424 29.125 32.5 C33 33 33 33 35 35 C35 36.32 35 37.64 35 39 C35.99 38.34 36.98 37.68 38 37 C40.83079592 36.64615051 42.36830089 36.6079109 44.8125 38.125 C46.55198782 40.87155972 46.39769128 42.81846974 46 46 C44.8125 47.875 44.8125 47.875 43 49 C40.11065736 49.4334014 38.64907776 49.42525784 36.1875 47.8125 C34.63321794 45.44017475 34.77462812 43.77958655 35 41 C34.01 41.495 34.01 41.495 33 42 C30 42.1875 30 42.1875 27 42 C25 40 25 40 24.125 37.5625 C22.80669465 34.55969336 21.81180986 33.64022242 19 32 C17.96875 31.71125 16.9375 31.4225 15.875 31.125 C14.92625 30.75375 13.9775 30.3825 13 30 C12.32598479 28.33629158 11.6604509 26.66913955 11 25 C9.02985458 22.61084614 6.91940753 20.41862233 4.77734375 18.18359375 C3.01830029 16.02248322 2.40063037 14.71812295 2 12 C0.88625 12.165 -0.2275 12.33 -1.375 12.5 C-5 13 -5 13 -7 13 C-8.44704725 14.65422322 -8.44704725 14.65422322 -9.875 16.75 C-11.58319568 19.1206423 -13.14815213 21.14403679 -15.25 23.1875 C-17.16966409 24.91099394 -17.16966409 24.91099394 -17.80078125 27.4609375 C-19.33590898 30.71120794 -20.65376649 31.12111344 -23.9375 32.4375 C-27.67676246 34.13471567 -28.79145907 34.67139005 -31.0625 38.25 C-31.371875 39.1575 -31.68125 40.065 -32 41 C-33 42 -33 42 -34.84765625 42.09765625 C-36.8984375 42.06510417 -38.94921875 42.03255208 -41 42 C-40.938125 42.78375 -40.87625 43.5675 -40.8125 44.375 C-40.874375 45.24125 -40.93625 46.1075 -41 47 C-44.23253796 49.15502531 -45.25150923 49.46856135 -49 49 C-50.8125 47.8125 -50.8125 47.8125 -52 46 C-52.46856135 42.25150923 -52.15502531 41.23253796 -50 38 C-43.875 37.5625 -43.875 37.5625 -41 39 C-40.67 37.35 -40.34 35.7 -40 34 C-39.32453125 33.89042969 -38.6490625 33.78085938 -37.953125 33.66796875 C-37.06109375 33.50941406 -36.1690625 33.35085937 -35.25 33.1875 C-34.36828125 33.03667969 -33.4865625 32.88585937 -32.578125 32.73046875 C-29.76228529 31.9326475 -28.14677296 30.97231737 -26 29 C-25.690625 28.13375 -25.38125 27.2675 -25.0625 26.375 C-24.711875 25.59125 -24.36125 24.8075 -24 24 C-23.25105469 23.90074219 -22.50210938 23.80148438 -21.73046875 23.69921875 C-16.09509207 22.25611084 -12.85883372 15.79240176 -10 11 C-9.20905998 8.19171859 -9.10695074 5.94114521 -9 3 C-6.79461481 -0.71433296 -4.06307329 -0.49751918 0 0 Z " fill="#BDE1E6" transform="translate(103,131)"/>
<path d="M0 0 C1 3 1 3 0.00634766 5.40307617 C-0.7818335 6.833573 -0.7818335 6.833573 -1.5859375 8.29296875 C-2.17850342 9.38206543 -2.77106934 10.47116211 -3.3815918 11.59326172 C-4.04602135 12.79136324 -4.71049196 13.989442 -5.375 15.1875 C-6.0568972 16.43442943 -6.73762091 17.68200124 -7.41723633 18.93017578 C-8.49109801 20.90210751 -9.56571766 22.87358609 -10.64393616 24.84313965 C-14.36276041 31.63903086 -17.98716921 38.48380987 -21.60733032 45.33261108 C-27.20651318 55.91956723 -32.85824168 66.47519644 -38.61401367 76.97802734 C-42.4435492 83.96710961 -46.22728474 90.98009886 -50 98 C-54.54290403 106.44821851 -59.09940117 114.88872791 -63.6875 123.3125 C-64.18056641 124.21935547 -64.67363281 125.12621094 -65.18164062 126.06054688 C-65.64119141 126.90294922 -66.10074219 127.74535156 -66.57421875 128.61328125 C-66.97213623 129.34329346 -67.37005371 130.07330566 -67.7800293 130.82543945 C-69.13755459 133.24518686 -70.57251278 135.62085464 -72 138 C-58.47 138 -44.94 138 -31 138 C-34.37935515 141.37935515 -35.50328257 141.34731659 -40.08229065 141.36553955 C-41.29645912 141.34701935 -41.29645912 141.34701935 -42.53515625 141.328125 C-43.78684853 141.32531525 -43.78684853 141.32531525 -45.06382751 141.32244873 C-46.82652791 141.31572972 -48.58921344 141.30181814 -50.35180664 141.28125 C-53.05564162 141.25007907 -55.75889374 141.24027731 -58.46289062 141.234375 C-60.1744863 141.22520554 -61.88607603 141.21482995 -63.59765625 141.203125 C-64.40912613 141.19887512 -65.22059601 141.19462524 -66.05665588 141.19024658 C-71.76558436 141.11720782 -71.76558436 141.11720782 -74 140 C-74.59720137 134.17728663 -72.528243 130.0790596 -70 125 C-69.34 125 -68.68 125 -68 125 C-67.814375 123.8553125 -67.814375 123.8553125 -67.625 122.6875 C-67 120 -67 120 -65 117 C-64.34 117 -63.68 117 -63 117 C-62.87625 116.0925 -62.7525 115.185 -62.625 114.25 C-62.07890323 111.41029677 -61.42736197 109.47409409 -60 107 C-59.01 107 -58.02 107 -57 107 C-56.81824219 106.28972656 -56.63648437 105.57945313 -56.44921875 104.84765625 C-56.19785156 103.92855469 -55.94648437 103.00945312 -55.6875 102.0625 C-55.44386719 101.14597656 -55.20023438 100.22945313 -54.94921875 99.28515625 C-54.63597656 98.53105469 -54.32273437 97.77695313 -54 97 C-52.515 96.505 -52.515 96.505 -51 96 C-50.89300781 95.11828125 -50.78601563 94.2365625 -50.67578125 93.328125 C-49.98324313 89.91747486 -48.94840148 87.72792959 -47.1875 84.75 C-45.23526137 81.43771851 -43.65795175 78.18538873 -42.3046875 74.59765625 C-39.46176278 67.32493175 -35.64461583 60.5443768 -31.9375 53.6875 C-31.20983182 52.33032179 -30.4826153 50.97290131 -29.75585938 49.61523438 C-29.05509168 48.3096788 -28.35393366 47.00433265 -27.65234375 45.69921875 C-27.33039536 45.10018234 -27.00844696 44.50114594 -26.67674255 43.88395691 C-25.79355284 42.25103964 -24.89714197 40.62529356 -24 39 C-23.47092041 38.03682861 -22.94184082 37.07365723 -22.39672852 36.08129883 C-21.93580811 35.39447021 -21.4748877 34.7076416 -21 34 C-20.34 34 -19.68 34 -19 34 C-18.9175 33.154375 -18.835 32.30875 -18.75 31.4375 C-17.84266147 27.27886509 -16.23458727 24.60417301 -14 21 C-13.34 21 -12.68 21 -12 21 C-11.7525 19.824375 -11.505 18.64875 -11.25 17.4375 C-10.18103871 13.09193997 -8.36422459 9.78275934 -6 6 C-5.01 6 -4.02 6 -3 6 C-3 4.68 -3 3.36 -3 2 C-2.01 1.34 -1.02 0.68 0 0 Z " fill="#0CB5C7" transform="translate(96,20)"/>
<path d="M0 0 C0.99 0 1.98 0 3 0 C2.3876939 4.2801932 0.87132238 7.48486505 -1.17578125 11.27734375 C-1.65823555 12.17736366 -1.65823555 12.17736366 -2.1504364 13.0955658 C-3.19820865 15.04631691 -4.25518216 16.99190876 -5.3125 18.9375 C-6.036326 20.28048228 -6.75962963 21.62374622 -7.48242188 22.96728516 C-9.6457881 26.98318185 -11.82174341 30.99216574 -14 35 C-14.64376524 36.18600921 -15.28748473 37.37204327 -15.93115234 38.55810547 C-19.27391698 44.71296519 -22.63428307 50.8575666 -26 57 C-10.49 57 5.02 57 21 57 C23.206875 60.939375 25.41375 64.87875 27.6875 68.9375 C28.71556763 70.77235962 28.71556763 70.77235962 29.7644043 72.64428711 C30.32039307 73.6369458 30.87638184 74.62960449 31.44921875 75.65234375 C32.07594482 76.72991943 32.7026709 77.80749512 33.34838867 78.91772461 C35 82 35 82 35.91137695 84.78735352 C36.93455899 87.68402408 37.57829018 89.07698862 40 91 C46.27479375 92.27913386 52.43356964 92.16860803 58.8125 92.0625 C60.57227751 92.06557569 62.33205291 92.07269243 64.09179688 92.08398438 C68.3959126 92.10280044 72.69638619 92.0661997 77 92 C74.43528038 94.56471962 72.73178658 94.24759745 69.23477173 94.27789307 C68.44831268 94.2738446 67.66185364 94.26979614 66.8515625 94.265625 C66.04262543 94.26753845 65.23368835 94.2694519 64.40023804 94.27142334 C62.6870696 94.27278557 60.97389085 94.26908649 59.26074219 94.26074219 C56.64234071 94.25007067 54.02462967 94.26062164 51.40625 94.2734375 C49.74218599 94.27211537 48.0781224 94.26955186 46.4140625 94.265625 C45.63165192 94.26967346 44.84924133 94.27372192 44.04312134 94.27789307 C37.12196876 94.21844817 37.12196876 94.21844817 34 92 C32.8046875 90.125 32.8046875 90.125 31.875 88 C30.7329698 85.43279162 30.01800698 84.01800698 28 82 C27 79.66666667 26 77.33333333 25 75 C24.01 74.01 24.01 74.01 23 73 C22.31867549 71.33927151 21.65257873 69.672233 21 68 C20.34 67.01 19.68 66.02 19 65 C18.875 62.3125 18.875 62.3125 19 60 C18.13889366 59.9845388 18.13889366 59.9845388 17.26039124 59.96876526 C11.30734338 59.86092566 5.35445385 59.74631023 -0.59838867 59.62768555 C-2.82263896 59.58426412 -5.04692415 59.54259455 -7.27124023 59.50268555 C-10.46088195 59.44515694 -13.6503468 59.38141316 -16.83984375 59.31640625 C-17.84087631 59.29969376 -18.84190887 59.28298126 -19.87327576 59.26576233 C-20.79415482 59.24581711 -21.71503387 59.22587189 -22.66381836 59.20532227 C-23.47878281 59.18977798 -24.29374725 59.1742337 -25.13340759 59.15821838 C-27 59 -27 59 -28 58 C-27.43632288 45.31726475 -19.21723788 33.67360228 -13 23 C-12.34 23 -11.68 23 -11 23 C-10.87625 21.7315625 -10.87625 21.7315625 -10.75 20.4375 C-9.84266147 16.27886509 -8.23458727 13.60417301 -6 10 C-5.34 10 -4.68 10 -4 10 C-3.79503906 9.36191406 -3.59007813 8.72382812 -3.37890625 8.06640625 C-3.10949219 7.24011719 -2.84007813 6.41382812 -2.5625 5.5625 C-2.29566406 4.73878906 -2.02882813 3.91507812 -1.75390625 3.06640625 C-1 1 -1 1 0 0 Z " fill="#14A3B2" transform="translate(95,66)"/>
<path d="M0 0 C2 0 2 0 3.3125 1.1875 C4.1478125 2.0846875 4.1478125 2.0846875 5 3 C6.2684375 4.2375 6.2684375 4.2375 7.5625 5.5 C10.85763817 8.87962889 12.22190836 11.05194618 12.625 15.6875 C12.69976562 16.49574219 12.77453125 17.30398437 12.8515625 18.13671875 C12.92503906 19.05904297 12.92503906 19.05904297 13 20 C13.76699219 20.14695312 14.53398437 20.29390625 15.32421875 20.4453125 C18.91555055 22.53195492 19.18339542 24.4296787 20.21826172 28.32373047 C20.41436035 29.16564941 20.61045898 30.00756836 20.8125 30.875 C21.02406738 31.73109863 21.23563477 32.58719727 21.45361328 33.46923828 C23.40810889 41.8472255 23.84396712 49.56611759 22 58 C22.99 58 23.98 58 25 58 C25.03738281 57.01257813 25.07476562 56.02515625 25.11328125 55.0078125 C25.17902344 53.72648437 25.24476563 52.44515625 25.3125 51.125 C25.37050781 49.84882812 25.42851562 48.57265625 25.48828125 47.2578125 C25.65714844 46.18273437 25.82601562 45.10765625 26 44 C26.99 43.34 27.98 42.68 29 42 C30.485 42.495 30.485 42.495 32 43 C31.34 43.99 30.68 44.98 30 46 C30.15760028 49.11304814 30.15760028 49.11304814 31 52 C31.99 52.495 31.99 52.495 33 53 C33.1509293 57.30148494 33.15534693 60.46999282 31.9375 64.625 C30.93474983 68.2349006 31.12197969 70.40011675 32 74 C29.525 74.495 29.525 74.495 27 75 C26.24500248 73.8365612 25.49636048 72.66899835 24.75 71.5 C24.33234375 70.8503125 23.9146875 70.200625 23.484375 69.53125 C22.99453125 68.6959375 22.5046875 67.860625 22 67 C21.49158569 66.15659058 21.49158569 66.15659058 20.97290039 65.29614258 C17.90981511 59.80588988 17.28986375 54.90022925 16.9375 48.6875 C16.2870486 37.55314096 16.2870486 37.55314096 13 27 C12.154375 26.34 11.30875 25.68 10.4375 25 C6.44014251 21.72011693 6.50666165 16.9531848 6 12 C6 11.01 6 10.02 6 9 C5.01 8.67 4.02 8.34 3 8 C3 7.34 3 6.68 3 6 C1.68 5.34 0.36 4.68 -1 4 C-0.67 2.68 -0.34 1.36 0 0 Z " fill="#14B7C9" transform="translate(139,63)"/>
<path d="M0 0 C1.32 0.33 2.64 0.66 4 1 C3.74204721 4.4823626 2.78438795 5.18808711 0.0625 7.5625 C-0.948125 8.366875 -1.95875 9.17125 -3 10 C-5.10827055 13.16240582 -5.33817465 14.50657469 -5.625 18.1875 C-5.69976562 19.08855469 -5.77453125 19.98960938 -5.8515625 20.91796875 C-5.90054688 21.60503906 -5.94953125 22.29210937 -6 23 C-6.77730469 23.20753906 -7.55460937 23.41507813 -8.35546875 23.62890625 C-11.20179054 24.78519686 -11.20179054 24.78519686 -12.36328125 27.58984375 C-15.2503071 37.77165919 -17.43079609 50.70761174 -14 61 C-14.9375 63.6875 -14.9375 63.6875 -16 66 C-16.99 66 -17.98 66 -19 66 C-20.485 70.95 -20.485 70.95 -22 76 C-25.48273741 74.83908753 -26.12922372 74.07228894 -28 71 C-28.73046875 68.37890625 -28.73046875 68.37890625 -29.1875 65.5625 C-29.34605469 64.63566406 -29.50460938 63.70882812 -29.66796875 62.75390625 C-29.98357086 60.13626519 -30.06212785 57.63326502 -30 55 C-31.32 54.34 -32.64 53.68 -34 53 C-34.36190476 47.57142857 -34.36190476 47.57142857 -32.8125 45.125 C-30.34492892 43.59340416 -28.85480169 43.57177975 -26 44 C-24.38671875 45.07421875 -24.38671875 45.07421875 -23 47 C-22.48828125 50.35546875 -22.48828125 50.35546875 -22.3125 54.1875 C-22.24675781 55.45980469 -22.18101563 56.73210937 -22.11328125 58.04296875 C-22.07589844 59.01878906 -22.03851563 59.99460938 -22 61 C-21.01 61 -20.02 61 -19 61 C-19.02094727 60.38705078 -19.04189453 59.77410156 -19.06347656 59.14257812 C-19.41205534 47.34384829 -19.35978822 36.61500543 -15.875 25.27734375 C-14.85775841 22.03258554 -14.85775841 22.03258554 -15 18.69140625 C-15 16 -15 16 -13 14 C-12.37351562 13.89429687 -11.74703125 13.78859375 -11.1015625 13.6796875 C-8.0166711 12.68197169 -7.1307053 10.79336268 -5.375 8.125 C-4.78460938 7.24070312 -4.19421875 6.35640625 -3.5859375 5.4453125 C-3.06257813 4.63835937 -2.53921875 3.83140625 -2 3 C-1.34 2.01 -0.68 1.02 0 0 Z " fill="#11CCE0" transform="translate(55,61)"/>
<path d="M0 0 C2.99144132 2.59832254 4.54039384 5.59587051 6.37109375 9.08203125 C6.68926559 9.68369614 7.00743744 10.28536102 7.33525085 10.90525818 C8.01830127 12.19823824 8.69889244 13.4925199 9.3772583 14.78796387 C10.8124035 17.52837986 12.25940739 20.26246762 13.70599365 22.99685669 C14.43659408 24.3779591 15.16661419 25.75936866 15.89605713 27.14108276 C18.92313596 32.87122356 22.00837138 38.56805588 25.125 44.25 C31.24239981 55.41944512 37.28605438 66.62830785 43.30322266 77.85205078 C44.51800243 80.10577315 45.74100972 82.35354341 46.97412109 84.59716797 C47.29873825 85.19101791 47.62335541 85.78486786 47.95780945 86.39671326 C48.87040829 88.06538048 49.78702351 89.73184929 50.70385742 91.39819336 C52 94 52 94 52 96 C50.02 96 48.04 96 46 96 C45.68546875 95.20335937 45.3709375 94.40671875 45.046875 93.5859375 C42.77633025 87.96428754 40.48010453 82.98814982 37 78 C36.26675619 76.31035122 35.53490253 74.61977431 34.83984375 72.9140625 C32.52608083 67.64083538 29.48112055 62.71194073 26.375 57.875 C24.78746142 55.38522676 23.66103045 53.19494732 22.5 50.4375 C21.29779792 47.68245358 20.25845013 45.84983365 18.5 43.5 C16.51554946 40.83449543 15.17566096 38.26431126 13.9453125 35.16015625 C10.99532359 28.41906588 7.42849441 21.87120506 3 16 C1.98034573 13.67518826 0.97940398 11.34205301 0 9 C-0.66 8.01 -1.32 7.02 -2 6 C-1.45945946 1.45945946 -1.45945946 1.45945946 0 0 Z " fill="#13A4B3" transform="translate(100,46)"/>
<path d="M0 0 C2.625 -0.1875 2.625 -0.1875 5 0 C5.33 0.99 5.66 1.98 6 3 C7.87387216 3.80212628 7.87387216 3.80212628 10.0625 4.1875 C10.79597656 4.34605469 11.52945313 4.50460938 12.28515625 4.66796875 C12.85105469 4.77753906 13.41695312 4.88710938 14 5 C14.02692484 7.29160319 14.04636124 9.58329546 14.0625 11.875 C14.07410156 13.15117188 14.08570313 14.42734375 14.09765625 15.7421875 C14 19 14 19 13 21 C10.66989091 21.67784992 8.33640176 22.34416793 6 23 C5.34 23.66 4.68 24.32 4 25 C2.68 25 1.36 25 0 25 C-0.66 24.01 -1.32 23.02 -2 22 C-5.06556598 21.26656572 -5.06556598 21.26656572 -8 21 C-10.28571429 9.57142857 -10.28571429 9.57142857 -8 5 C-6.5459375 4.5359375 -6.5459375 4.5359375 -5.0625 4.0625 C-1.7319557 3.25255878 -1.7319557 3.25255878 0 0 Z " fill="#E4F3F7" transform="translate(138,29)"/>
<path d="M0 0 C0.99 0.103125 1.98 0.20625 3 0.3125 C3.66 1.3025 4.32 2.2925 5 3.3125 C8.06556598 4.04593428 8.06556598 4.04593428 11 4.3125 C11.02692484 6.60410319 11.04636124 8.89579546 11.0625 11.1875 C11.07410156 12.46367188 11.08570312 13.73984375 11.09765625 15.0546875 C11 18.3125 11 18.3125 10 20.3125 C7.66666667 20.97916667 5.33333333 21.64583333 3 22.3125 C2.67 22.9725 2.34 23.6325 2 24.3125 C-0.375 24.5 -0.375 24.5 -3 24.3125 C-3.66 23.3225 -4.32 22.3325 -5 21.3125 C-5.825 21.3125 -6.65 21.3125 -7.5 21.3125 C-8.325 21.3125 -9.15 21.3125 -10 21.3125 C-12.32613583 17.82329626 -12.24247293 16.36297454 -12.1875 12.25 C-12.18105469 11.18652344 -12.17460938 10.12304688 -12.16796875 9.02734375 C-12 6.3125 -12 6.3125 -11 4.3125 C-9.00428677 3.63310826 -7.00405227 2.96688441 -5 2.3125 C-3 0.3125 -3 0.3125 0 0 Z " fill="#E0F3F7" transform="translate(60,29.6875)"/>
<path d="M0 0 C0.33 0 0.66 0 1 0 C1.226875 1.27875 1.45375 2.5575 1.6875 3.875 C4.04056033 14.39748807 9.28883536 22.67996269 18.1875 28.6875 C23.25515504 31.79970119 28.21777952 33.68300835 34 35 C34 35.33 34 35.66 34 36 C22.78 36 11.56 36 0 36 C0 24.12 0 12.24 0 0 Z " fill="#F9FEFE" transform="translate(0,161)"/>
<path d="M0 0 C10.89 0 21.78 0 33 0 C33 11.22 33 22.44 33 34 C31.52675574 31.05351148 30.40533024 28.38330352 29.3125 25.3125 C25.20789686 15.12589366 18.70794317 8.99613812 9 4 C6.00938056 2.78735344 3.11579096 1.86833519 0 1 C0 0.67 0 0.34 0 0 Z " fill="#FBFEFE" transform="translate(164,0)"/>
<path d="M0 0 C11.88 0 23.76 0 36 0 C36 0.33 36 0.66 36 1 C35.10861328 1.11214844 35.10861328 1.11214844 34.19921875 1.2265625 C23.7121333 2.89014371 15.50308831 7.34231519 8.71875 15.55859375 C5.95968275 19.47772336 3.94542524 23.63410381 2 28 C1.34 29.32 0.68 30.64 0 32 C0 21.44 0 10.88 0 0 Z " fill="#FAFEFE" transform="translate(0,0)"/>
<path d="M0 0 C0.99 0 1.98 0 3 0 C2.3876939 4.2801932 0.87132238 7.48486505 -1.17578125 11.27734375 C-1.65823555 12.17736366 -1.65823555 12.17736366 -2.1504364 13.0955658 C-3.19820865 15.04631691 -4.25518216 16.99190876 -5.3125 18.9375 C-6.036326 20.28048228 -6.75962963 21.62374622 -7.48242188 22.96728516 C-9.6457881 26.98318185 -11.82174341 30.99216574 -14 35 C-14.64376524 36.18600921 -15.28748473 37.37204327 -15.93115234 38.55810547 C-19.27391698 44.71296519 -22.63428307 50.8575666 -26 57 C-10.49 57 5.02 57 21 57 C21 57.33 21 57.66 21 58 C4.83 58 -11.34 58 -28 58 C-26.13311509 44.93180561 -19.55073493 34.24614188 -13 23 C-12.34 23 -11.68 23 -11 23 C-10.87625 21.7315625 -10.87625 21.7315625 -10.75 20.4375 C-9.84266147 16.27886509 -8.23458727 13.60417301 -6 10 C-5.34 10 -4.68 10 -4 10 C-3.79503906 9.36191406 -3.59007813 8.72382812 -3.37890625 8.06640625 C-3.10949219 7.24011719 -2.84007813 6.41382812 -2.5625 5.5625 C-2.29566406 4.73878906 -2.02882813 3.91507812 -1.75390625 3.06640625 C-1 1 -1 1 0 0 Z " fill="#18B5C6" transform="translate(95,66)"/>
<path d="M0 0 C2.25 0.0625 2.25 0.0625 5 1 C7.125 4.3125 7.125 4.3125 8.0859375 6.21875 C9.01931227 8.1639437 9.01931227 8.1639437 10.75 10.3125 C12 12 12 12 12 14 C12.969375 14.144375 13.93875 14.28875 14.9375 14.4375 C18 15 18 15 19 16 C18.99402125 17.47974133 18.94417951 18.95936457 18.875 20.4375 C18.80218321 26.07675575 20.20865886 30.70951062 22 36 C22.77994283 38.73421733 23.128045 41.16281468 23.1328125 44.00390625 C23.13474609 45.11475586 23.13474609 45.11475586 23.13671875 46.24804688 C23.13285156 47.01181641 23.12898438 47.77558594 23.125 48.5625 C23.13080078 49.71395508 23.13080078 49.71395508 23.13671875 50.88867188 C23.130981 54.17927139 23.04747031 56.85758907 22 60 C21.01 60 20.02 60 19 60 C19.04640625 58.9584375 19.0928125 57.916875 19.140625 56.84375 C19.42404567 47.42222697 18.49075357 39.25020276 15.875 30.1953125 C15 27 15 27 15 24 C14.195625 23.855625 13.39125 23.71125 12.5625 23.5625 C10 23 10 23 9 22 C8.86798654 20.60652455 8.76941967 19.20981548 8.6875 17.8125 C8.22596957 13.28373268 7.00599297 10.52130605 4 7 C1.89960669 5.61131484 1.89960669 5.61131484 0 5 C0 3.35 0 1.7 0 0 Z " fill="#ACDDE4" transform="translate(142,61)"/>
<path d="M0 0 C1.32 0.33 2.64 0.66 4 1 C3.74204721 4.4823626 2.78438795 5.18808711 0.0625 7.5625 C-1.4534375 8.7690625 -1.4534375 8.7690625 -3 10 C-5.10827055 13.16240582 -5.33817465 14.50657469 -5.625 18.1875 C-5.69976562 19.08855469 -5.77453125 19.98960938 -5.8515625 20.91796875 C-5.90054688 21.60503906 -5.94953125 22.29210937 -6 23 C-7.16789062 23.31517578 -7.16789062 23.31517578 -8.359375 23.63671875 C-11.19083403 24.77961298 -11.19083403 24.77961298 -12.328125 27.51953125 C-15.34445655 38.29396979 -15.81498461 48.85760754 -16 60 C-16.99 59.67 -17.98 59.34 -19 59 C-19.44540221 47.25508637 -19.29753303 36.64914553 -15.875 25.34765625 C-14.86022374 22.04191759 -14.86022374 22.04191759 -15 18.68359375 C-15 16 -15 16 -13 14 C-12.37351562 13.89429687 -11.74703125 13.78859375 -11.1015625 13.6796875 C-8.0166711 12.68197169 -7.1307053 10.79336268 -5.375 8.125 C-4.78460938 7.24070312 -4.19421875 6.35640625 -3.5859375 5.4453125 C-3.06257813 4.63835937 -2.53921875 3.83140625 -2 3 C-1.34 2.01 -0.68 1.02 0 0 Z " fill="#CDE9ED" transform="translate(55,61)"/>
<path d="M0 0 C3.155478 -0.56798604 5.8664791 -0.76026409 9 0 C10.98901535 2.06857597 12.24705276 4.18226229 13.65234375 6.6796875 C15.01671344 9.25701057 15.01671344 9.25701057 17.8125 11.8125 C19.98124098 13.98124098 20.66729184 15.00562658 21 18 C22.0725 18.2475 23.145 18.495 24.25 18.75 C28.08508629 20.0283621 29.57318355 20.85412682 32 24 C33.25 26.75 33.25 26.75 34 29 C36.64 29 39.28 29 42 29 C42.268125 29.928125 42.53625 30.85625 42.8125 31.8125 C43.91148371 34.76240366 44.62418561 36.05615186 47 38 C43.28400809 38.20086443 42.22791555 38.1519437 39 36 C38.67 35.01 38.34 34.02 38 33 C36.9275 32.896875 35.855 32.79375 34.75 32.6875 C31.10112599 32.01853976 29.48669893 31.67798347 27 29 C26.25 26.3125 26.25 26.3125 26 24 C25.01 23.87625 24.02 23.7525 23 23.625 C18.03489405 22.26262337 15.73126491 18.39505775 12.796875 14.41015625 C11.2987979 12.40077893 9.78890976 10.73720716 8 9 C7.54625 8.319375 7.0925 7.63875 6.625 6.9375 C4.65398754 4.58744668 2.88205 3.93471892 0 3 C0 2.01 0 1.02 0 0 Z " fill="#0EB7C9" transform="translate(96,143)"/>
<path d="M0 0 C2.17201293 2.76265841 3.89641624 5.52189495 5.49609375 8.6484375 C5.9657959 9.55956299 6.43549805 10.47068848 6.91943359 11.40942383 C7.42039551 12.38806396 7.92135742 13.3667041 8.4375 14.375 C12.49907212 22.23540936 16.62035743 30.05483267 20.875 37.8125 C21.35541748 38.68986816 21.83583496 39.56723633 22.33081055 40.47119141 C23.33793014 42.31045161 24.34517639 44.14964246 25.35253906 45.98876953 C28.17549146 51.14856426 30.99090968 56.31231685 33.79205322 61.48397827 C34.73578419 63.22379245 35.68402087 64.96116015 36.63232422 66.69848633 C37.20225098 67.75189209 37.77217773 68.80529785 38.359375 69.890625 C38.86952148 70.82938477 39.37966797 71.76814453 39.90527344 72.73535156 C41 75 41 75 41 77 C27.47 77 13.94 77 0 77 C0 76.67 0 76.34 0 76 C12.21 75.67 24.42 75.34 37 75 C36.01 73.35 35.02 71.7 34 70 C33.53207031 68.90042969 33.06414062 67.80085938 32.58203125 66.66796875 C30.8694937 62.69741872 28.84981084 59.04877518 26.6875 55.3125 C16 36.57055709 16 36.57055709 16 33 C15.34 33 14.68 33 14 33 C10.9375 26.875 10.9375 26.875 9.99584961 24.98071289 C8.35282843 21.68023274 6.69000952 18.39344743 4.9765625 15.12890625 C4.6556665 14.50967285 4.33477051 13.89043945 4.00415039 13.25244141 C3.10418388 11.5178417 2.19489136 9.78809017 1.28515625 8.05859375 C0.02427553 5.05777429 -0.29246142 3.20513847 0 0 Z " fill="#B8DDE3" transform="translate(135,81)"/>
<path d="M0 0 C0.99 0.33 1.98 0.66 3 1 C2.01 2.485 2.01 2.485 1 4 C1.15760028 7.11304814 1.15760028 7.11304814 2 10 C2.66 10.33 3.32 10.66 4 11 C4.1509293 15.30148494 4.15534693 18.46999282 2.9375 22.625 C1.93474983 26.2349006 2.12197969 28.40011675 3 32 C0.525 32.495 0.525 32.495 -2 33 C-10 20.54150198 -10 20.54150198 -10 17 C-8.02 16.67 -6.04 16.34 -4 16 C-3.96261719 15.01257813 -3.92523438 14.02515625 -3.88671875 13.0078125 C-3.82097656 11.72648437 -3.75523437 10.44515625 -3.6875 9.125 C-3.62949219 7.84882812 -3.57148438 6.57265625 -3.51171875 5.2578125 C-3.34285156 4.18273437 -3.17398438 3.10765625 -3 2 C-2.01 1.34 -1.02 0.68 0 0 Z " fill="#0DC2D5" transform="translate(168,105)"/>
<path d="M0 0 C0.66 0 1.32 0 2 0 C2.3309668 0.64211426 2.66193359 1.28422852 3.00292969 1.94580078 C8.87134804 13.31712348 14.76579128 24.66484138 20.9375 35.875 C25.61344659 44.37923 30.15177363 52.95045083 34.625 61.5625 C35.22948975 62.72313965 35.83397949 63.8837793 36.45678711 65.07958984 C37.02018799 66.16836426 37.58358887 67.25713867 38.1640625 68.37890625 C38.66373535 69.3438501 39.1634082 70.30879395 39.67822266 71.30297852 C40.91737708 73.831412 41.99351102 76.37148085 43 79 C47.95 78.01 47.95 78.01 53 77 C53 77.66 53 78.32 53 79 C50.35541621 80.32229189 48.32238699 80.09677194 45.375 80.0625 C44.37210938 80.05347656 43.36921875 80.04445313 42.3359375 80.03515625 C41.56507813 80.02355469 40.79421875 80.01195312 40 80 C39.57436768 78.98196289 39.14873535 77.96392578 38.71020508 76.91503906 C37.16611202 73.31503572 35.4399998 69.83798027 33.63671875 66.359375 C33.32225296 65.75168274 33.00778717 65.14399048 32.68379211 64.5178833 C32.02188549 63.23999697 31.35879951 61.96272087 30.69458008 60.68603516 C29.69789623 58.76998596 28.70507966 56.85197365 27.71289062 54.93359375 C24.25419492 48.26033542 20.73433246 41.63127681 17.04223633 35.08300781 C16 33 16 33 16 31 C15.34 31 14.68 31 14 31 C13.48050781 29.94941406 12.96101563 28.89882812 12.42578125 27.81640625 C7.41344346 17.70340501 7.41344346 17.70340501 2.0078125 7.796875 C1.50894531 6.90742187 1.50894531 6.90742187 1 6 C0.60554688 5.30390625 0.21109375 4.6078125 -0.1953125 3.890625 C-0.46085937 3.26671875 -0.72640625 2.6428125 -1 2 C-0.67 1.34 -0.34 0.68 0 0 Z " fill="#B9DCE1" transform="translate(100,64)"/>
<path d="M0 0 C1 3 1 3 0.00634766 5.40307617 C-0.51910645 6.35674072 -1.04456055 7.31040527 -1.5859375 8.29296875 C-2.17850342 9.38206543 -2.77106934 10.47116211 -3.3815918 11.59326172 C-4.04602135 12.79136324 -4.71049196 13.989442 -5.375 15.1875 C-6.0568972 16.43442943 -6.73762091 17.68200124 -7.41723633 18.93017578 C-8.49109801 20.90210751 -9.56571766 22.87358609 -10.64393616 24.84313965 C-14.36395906 31.64122131 -17.98954757 38.48820704 -21.61090088 45.33920288 C-28.32509074 58.03541273 -35.13104672 70.67774261 -42.0546875 83.26123047 C-42.7257063 84.49547528 -43.37172833 85.74345665 -44 87 C-44.66 87 -45.32 87 -46 87 C-43.87540663 81.10635398 -40.69903227 75.70567524 -37.72070312 70.21289062 C-35.65455092 66.34847779 -33.79172863 62.6078765 -32.37109375 58.45703125 C-31.91863281 57.31621094 -31.46617188 56.17539063 -31 55 C-29.515 54.505 -29.515 54.505 -28 54 C-27.0837631 51.69836033 -27.0837631 51.69836033 -26.5 49 C-25.84375 46.25 -25.84375 46.25 -25 44 C-23.515 43.505 -23.515 43.505 -22 43 C-20.88998307 40.24539639 -20.88998307 40.24539639 -20 37 C-19.21051574 34.9285809 -18.39788776 32.86583626 -17.5625 30.8125 C-17.15128906 29.78769531 -16.74007812 28.76289062 -16.31640625 27.70703125 C-15 25 -15 25 -13.53515625 23.54296875 C-11.2204883 21.21652132 -10.20998664 18.47856316 -8.875 15.5 C-8.35679688 14.3553125 -7.83859375 13.210625 -7.3046875 12.03125 C-5.96556438 9.03768355 -5.96556438 9.03768355 -5 6 C-4.34 6 -3.68 6 -3 6 C-3 4.68 -3 3.36 -3 2 C-2.01 1.34 -1.02 0.68 0 0 Z " fill="#13AFC0" transform="translate(96,20)"/>
<path d="M0 0 C0.66 0 1.32 0 2 0 C2.4964502 0.91773193 2.4964502 0.91773193 3.00292969 1.85400391 C4.58490249 4.77787724 6.16736527 7.70148489 7.75 10.625 C8.33620117 11.70789307 8.92240234 12.79078613 9.52636719 13.90649414 C13.41853321 21.09215207 17.32891655 28.26759186 21.25 35.4375 C26.2487912 44.58219247 31.15420924 53.7734186 36 63 C35.01 63 34.02 63 33 63 C30 58.77777778 30 58.77777778 30 56 C29.34 56 28.68 56 28 56 C27.53851563 55.06542969 27.07703125 54.13085938 26.6015625 53.16796875 C22.28625837 44.46781309 17.85198952 35.84423132 13.23876953 27.29760742 C12.83126465 26.53424072 12.42375977 25.77087402 12.00390625 24.984375 C11.64111572 24.31116211 11.2783252 23.63794922 10.90454102 22.94433594 C10 21 10 21 9.56225586 18.81347656 C9.37671143 18.2150293 9.19116699 17.61658203 9 17 C8.01 16.67 7.02 16.34 6 16 C6 14.68 6 13.36 6 12 C5.34 12 4.68 12 4 12 C3.70996094 11.16855469 3.70996094 11.16855469 3.4140625 10.3203125 C3.15367188 9.59585937 2.89328125 8.87140625 2.625 8.125 C2.24214844 7.04605469 2.24214844 7.04605469 1.8515625 5.9453125 C1.06122217 3.81842006 1.06122217 3.81842006 -1 2 C-0.67 1.34 -0.34 0.68 0 0 Z " fill="#BBDDE2" transform="translate(99,17)"/>
<path d="M0 0 C1 3 1 3 0.37915039 4.80932617 C0.03875732 5.46392822 -0.30163574 6.11853027 -0.65234375 6.79296875 C-1.19858398 7.8612793 -1.19858398 7.8612793 -1.75585938 8.95117188 C-2.14580078 9.68916016 -2.53574219 10.42714844 -2.9375 11.1875 C-3.32357422 11.93708984 -3.70964844 12.68667969 -4.10742188 13.45898438 C-5.06271757 15.31060689 -6.03021577 17.15592452 -7 19 C-7.66 19 -8.32 19 -9 19 C-9.17015625 19.6290625 -9.3403125 20.258125 -9.515625 20.90625 C-13.35095981 34.45232615 -13.35095981 34.45232615 -17.53125 38.47265625 C-19.23729955 40.24676628 -19.75828586 41.66889841 -20.5 44 C-21.23239112 46.30180067 -21.69514456 47.7058557 -23.4453125 49.39453125 C-25.55988805 51.57817585 -26.29476084 53.85640341 -27.375 56.6875 C-29.4706915 61.89823749 -31.74229607 66.42160529 -35 71 C-35.66 71 -36.32 71 -37 71 C-35.56748862 66.23062294 -33.54547495 61.95747285 -31.19140625 57.58984375 C-30.8240184 56.89991837 -30.45663055 56.20999298 -30.07810974 55.49916077 C-29.304482 54.04833298 -28.52865064 52.59867829 -27.75073242 51.15014648 C-26.56548237 48.94305358 -25.38664385 46.73263521 -24.20898438 44.52148438 C-23.45349528 43.10657306 -22.69764791 41.69185298 -21.94140625 40.27734375 C-21.41626183 39.29434547 -21.41626183 39.29434547 -20.88050842 38.29148865 C-16.72589783 30.56027025 -16.72589783 30.56027025 -15 28 C-14.34 28 -13.68 28 -13 28 C-12.87625 26.7315625 -12.87625 26.7315625 -12.75 25.4375 C-11.84266147 21.27886509 -10.23458727 18.60417301 -8 15 C-7.34 15 -6.68 15 -6 15 C-5.7525 13.824375 -5.505 12.64875 -5.25 11.4375 C-4.18103871 7.09193997 -2.36422459 3.78275934 0 0 Z " fill="#0CC0D3" transform="translate(90,26)"/>
<path d="M0 0 C-0.09765625 2.01822917 -0.1953125 4.03645833 -0.29296875 6.0546875 C-0.19628906 6.69664063 -0.09960938 7.33859375 0 8 C0.99 8.66 1.98 9.32 3 10 C3.68536685 12.63895527 4.2048576 15.13170502 4.625 17.8125 C4.86713482 19.23568605 5.10932115 20.65886333 5.3515625 22.08203125 C5.56554688 23.37496094 5.77953125 24.66789062 6 26 C6.3245898 27.66839155 6.65347497 29.33602605 7 31 C6.34 31.33 5.68 31.66 5 32 C-0.7938252 27.03386412 -1.75864155 20.12088348 -3 13 C-3.32931846 11.33253539 -3.66152953 9.665631 -4 8 C-4.66 8 -5.32 8 -6 8 C-5.6875 5.125 -5.6875 5.125 -5 2 C-2 0 -2 0 0 0 Z " fill="#10BCCE" transform="translate(22,106)"/>
<path d="M0 0 C1.8125 0.0625 1.8125 0.0625 4 1 C5.08301035 3.29598193 6.07796291 5.63477442 7 8 C7.495 8.66 7.99 9.32 8.5 10 C10.15938272 12.21251029 11.13185661 14.50680396 12.1796875 17.0546875 C13.08160209 19.19351352 14.05147234 21.28554284 15.0625 23.375 C15.38347656 24.04273438 15.70445312 24.71046875 16.03515625 25.3984375 C16.91358912 27.17986258 16.91358912 27.17986258 19 28 C19.33 27.34 19.66 26.68 20 26 C20.33 26.66 20.66 27.32 21 28 C39.315 28.495 39.315 28.495 58 29 C55.43528038 31.56471962 53.73178658 31.24759745 50.23477173 31.27789307 C49.44831268 31.2738446 48.66185364 31.26979614 47.8515625 31.265625 C47.04262543 31.26753845 46.23368835 31.2694519 45.40023804 31.27142334 C43.6870696 31.27278557 41.97389085 31.26908649 40.26074219 31.26074219 C37.64234071 31.25007067 35.02462967 31.26062164 32.40625 31.2734375 C30.74218599 31.27211537 29.0781224 31.26955186 27.4140625 31.265625 C26.63165192 31.26967346 25.84924133 31.27372192 25.04312134 31.27789307 C18.12196876 31.21844817 18.12196876 31.21844817 15 29 C13.8046875 27.125 13.8046875 27.125 12.875 25 C11.7329698 22.43279162 11.01800698 21.01800698 9 19 C8 16.66666667 7 14.33333333 6 12 C5.34 11.34 4.68 10.68 4 10 C3.28752268 8.3523962 2.62599617 6.68236471 2 5 C1.62875 4.071875 1.2575 3.14375 0.875 2.1875 C0.58625 1.465625 0.2975 0.74375 0 0 Z " fill="#09B2C4" transform="translate(114,129)"/>
<path d="M0 0 C1 3 1 3 -0.35522461 6.09448242 C-1.02742034 7.35363077 -1.71030034 8.60711881 -2.40234375 9.85546875 C-2.87565125 10.73555603 -2.87565125 10.73555603 -3.35852051 11.63342285 C-4.54048772 13.82410015 -5.74006213 16.00524061 -6.9375 18.1875 C-9.598125 23.075625 -12.25875 27.96375 -15 33 C0.51 33 16.02 33 32 33 C32 33.33 32 33.66 32 34 C15.83 34 -0.34 34 -17 34 C-15.875 26.125 -15.875 26.125 -14 23 C-13.34 23 -12.68 23 -12 23 C-11.87625 22.236875 -11.7525 21.47375 -11.625 20.6875 C-11 18 -11 18 -9 15 C-8.34 15 -7.68 15 -7 15 C-6.80664062 14.31292969 -6.61328125 13.62585938 -6.4140625 12.91796875 C-6.15367188 12.01691406 -5.89328125 11.11585937 -5.625 10.1875 C-5.24214844 8.84751953 -5.24214844 8.84751953 -4.8515625 7.48046875 C-4 5 -4 5 -2 2 C-1.34 2 -0.68 2 0 2 C0 1.34 0 0.68 0 0 Z " fill="#34BDCB" transform="translate(84,90)"/>
<path d="M0 0 C0.66 0 1.32 0 2 0 C3.17176518 2.12232979 4.33754785 4.24757791 5.5 6.375 C5.83386719 6.97828125 6.16773437 7.5815625 6.51171875 8.203125 C9 12.7734375 9 12.7734375 9 15 C4.05 15 -0.9 15 -6 15 C-4.32819664 9.74576086 -2.62305301 4.87138415 0 0 Z " fill="#31D0E1" transform="translate(99,95)"/>
<path d="M0 0 C1.875 1.125 1.875 1.125 3 3 C3.39365568 6.14924548 3.52854531 8.11909116 1.875 10.875 C-0.88090884 12.52854531 -2.85075452 12.39365568 -6 12 C-7.875 10.875 -7.875 10.875 -9 9 C-9.39365568 5.85075452 -9.52854531 3.88090884 -7.875 1.125 C-5.11909116 -0.52854531 -3.14924548 -0.39365568 0 0 Z " fill="#28C6D7" transform="translate(143,36)"/>
<path d="M0 0 C2.31 0 4.62 0 7 0 C5.68 0.33 4.36 0.66 3 1 C3 2.65 3 4.3 3 6 C5.47266765 5.65555119 5.47266765 5.65555119 8 5 C8.33 4.34 8.66 3.68 9 3 C9 4.65 9 6.3 9 8 C8.01 8.33 7.02 8.66 6 9 C6.03480469 9.61746094 6.06960937 10.23492187 6.10546875 10.87109375 C6.30729726 17.18544297 5.37209404 22.15448255 3 28 C2.01 28 1.02 28 0 28 C0.86670454 21.64416673 1.93034128 15.32448699 3 9 C2.01 8.67 1.02 8.34 0 8 C-1.125 2.25 -1.125 2.25 0 0 Z " fill="#B6E4EB" transform="translate(169,107)"/>
<path d="M0 0 C2.625 0.375 2.625 0.375 5 1 C4.01 1.66 3.02 2.32 2 3 C2 3.99 2 4.98 2 6 C2.99 6 3.98 6 5 6 C5.33 5.34 5.66 4.68 6 4 C6.66 4 7.32 4 8 4 C8 5.65 8 7.3 8 9 C7.01 9.33 6.02 9.66 5 10 C5.20496094 10.95261719 5.40992188 11.90523437 5.62109375 12.88671875 C5.89050781 14.14097656 6.15992188 15.39523438 6.4375 16.6875 C6.83775391 18.54955078 6.83775391 18.54955078 7.24609375 20.44921875 C7.85055136 23.29612015 8.43764684 26.14455626 9 29 C7.68 28.67 6.36 28.34 5 28 C4.49309416 25.93918639 3.99475381 23.87626474 3.5 21.8125 C3.2215625 20.66394531 2.943125 19.51539062 2.65625 18.33203125 C2.08504615 15.43181171 1.86716221 12.93903615 2 10 C0.68 9.34 -0.64 8.68 -2 8 C-2.125 5.125 -2.125 5.125 -2 2 C-1.34 1.34 -0.68 0.68 0 0 Z " fill="#CDECF1" transform="translate(23,106)"/>
<path d="M0 0 C3.38879801 0.3388798 4.66384629 1.04066581 7.125 3.3125 C6.525 8.7125 6.525 8.7125 4.875 11.1875 C2.44892716 12.74711825 0.95504474 12.73700671 -1.875 12.3125 C-3.6875 11.25 -3.6875 11.25 -4.875 9.3125 C-5.1875 5.75 -5.1875 5.75 -4.875 2.3125 C-2.875 0.3125 -2.875 0.3125 0 0 Z " fill="#14BCCE" transform="translate(58.875,35.6875)"/>
<path d="M0 0 C1.32 0 2.64 0 4 0 C4 5.28 4 10.56 4 16 C5.98 16 7.96 16 10 16 C10.66 17.32 11.32 18.64 12 20 C13.65 19.67 15.3 19.34 17 19 C16.67 19.99 16.34 20.98 16 22 C12.625 22.125 12.625 22.125 9 22 C8.34 21.34 7.68 20.68 7 20 C4.67451993 19.30643577 2.34119555 18.63850788 0 18 C-1.82116003 16.17883997 -1.1323508 13.69328236 -1.13671875 11.2734375 C-1.13285156 10.52320313 -1.12898438 9.77296875 -1.125 9 C-1.12886719 8.24976563 -1.13273437 7.49953125 -1.13671875 6.7265625 C-1.12661053 1.12661053 -1.12661053 1.12661053 0 0 Z " fill="#12B4C6" transform="translate(126,34)"/>
<path d="M0 0 C0.33 0.66 0.66 1.32 1 2 C0.690625 2.598125 0.38125 3.19625 0.0625 3.8125 C-1.18790755 6.38686848 -1.07942713 8.17332853 -1 11 C-0.17980881 11.0154612 -0.17980881 11.0154612 0.6569519 11.03123474 C6.33441385 11.13919328 12.01171364 11.25379974 17.68896484 11.37231445 C19.80937313 11.41569752 21.92981712 11.45737007 24.05029297 11.49731445 C27.09353408 11.55493543 30.1365949 11.61865325 33.1796875 11.68359375 C34.13181122 11.70030624 35.08393494 11.71701874 36.06491089 11.73423767 C37.38605392 11.7641555 37.38605392 11.7641555 38.73388672 11.79467773 C39.51110077 11.81022202 40.28831482 11.8257663 41.08908081 11.84178162 C43 12 43 12 45 13 C45 13.66 45 14.32 45 15 C38.50356158 14.90777211 32.00749835 14.80047203 25.51147461 14.68261719 C23.30092032 14.64429983 21.09030308 14.60945186 18.87963867 14.578125 C15.70468629 14.53253448 12.53016828 14.47452997 9.35546875 14.4140625 C8.36475876 14.40251129 7.37404877 14.39096008 6.35331726 14.37905884 C5.43258926 14.35918915 4.51186127 14.33931946 3.56323242 14.31884766 C2.34744759 14.29886215 2.34744759 14.29886215 1.10710144 14.2784729 C-1 14 -1 14 -4 12 C-3.5317879 7.22423661 -2.75668002 3.95523655 0 0 Z " fill="#0CBED1" transform="translate(69,113)"/>
<path d="M0 0 C0.33 0.66 0.66 1.32 1 2 C1.556875 1.67 2.11375 1.34 2.6875 1 C5.38858329 -0.16803602 7.08537214 -0.37367024 10 0 C11.8125 1.125 11.8125 1.125 13 3 C13.39769128 6.18153026 13.55198782 8.12844028 11.8125 10.875 C9.34492892 12.40659584 7.85480169 12.42822025 5 12 C3.125 10.875 3.125 10.875 2 9 C2.3125 5.8125 2.3125 5.8125 3 3 C2.01 3 1.02 3 0 3 C0 2.01 0 1.02 0 0 Z " fill="#CAE7EC" transform="translate(136,168)"/>
<path d="M0 0 C3.625 0.1875 3.625 0.1875 6.625 2.1875 C7.03343923 4.89953652 6.75836867 7.4312142 6.625 10.1875 C2.60459015 10.88334017 -0.45763419 11.3575097 -4.375 10.1875 C-4.40189216 8.70843108 -4.42134621 7.22922517 -4.4375 5.75 C-4.44910156 4.92628906 -4.46070312 4.10257813 -4.47265625 3.25390625 C-4.30723439 -0.24642031 -3.612473 0.20069294 0 0 Z " fill="#E8F7FB" transform="translate(98.375,132.8125)"/>
<path d="M0 0 C0.66 0 1.32 0 2 0 C2 0.99 2 1.98 2 3 C2.66 3 3.32 3 4 3 C3.97679687 3.62648437 3.95359375 4.25296875 3.9296875 4.8984375 C3.91164062 5.71570312 3.89359375 6.53296875 3.875 7.375 C3.84019531 8.59316406 3.84019531 8.59316406 3.8046875 9.8359375 C3.78629949 12.21342243 3.78629949 12.21342243 6 14 C8.57061311 14.64767793 8.57061311 14.64767793 11 15 C11.33 15.99 11.66 16.98 12 18 C13.65 18 15.3 18 17 18 C16.34 18.99 15.68 19.98 15 21 C12 21.3125 12 21.3125 9 21 C8.34 20.34 7.68 19.68 7 19 C4.69 18.01 2.38 17.02 0 16 C0 10.72 0 5.44 0 0 Z " fill="#0BB0C1" transform="translate(45,36)"/>
<path d="M0 0 C1.15952589 3.38745485 0.81501523 5.22508721 -0.39453125 8.5546875 C-2.18654568 14.1092183 -2.54482066 19.31998904 -2.6875 25.125 C-2.72166016 26.08148438 -2.75582031 27.03796875 -2.79101562 28.0234375 C-2.87240474 30.34884073 -2.94189612 32.67391876 -3 35 C-3.99 34.67 -4.98 34.34 -6 34 C-6.69275339 8.71983013 -6.69275339 8.71983013 -3 1 C-2.01 0.67 -1.02 0.34 0 0 Z " fill="#BCE5EB" transform="translate(42,86)"/>
<path d="M0 0 C0.33 0 0.66 0 1 0 C4.19691346 7.99228364 1.598882 14.09628395 -1 22 C-2.13346038 25.70950668 -2.31209912 29.38667214 -2.5625 33.25 C-2.68818359 35.14492187 -2.68818359 35.14492187 -2.81640625 37.078125 C-2.87699219 38.04234375 -2.93757813 39.0065625 -3 40 C-5.36597032 36.29143541 -5.26739289 33.01398092 -5.25 28.6875 C-5.25773437 26.77517578 -5.25773437 26.77517578 -5.265625 24.82421875 C-4.99582346 20.93987005 -4.10656558 17.71976277 -3 14 C-2.66612006 10.85469917 -2.50225626 7.73245602 -2.34375 4.57421875 C-2 2 -2 2 0 0 Z " fill="#0AB4C6" transform="translate(38,77)"/>
<path d="M0 0 C8.54990755 7.77264323 14.39448789 21.45049882 19 32 C19 32.99 19 33.98 19 35 C19.66 35 20.32 35 21 35 C21.33 36.32 21.66 37.64 22 39 C22.66 39 23.32 39 24 39 C26.02055843 43.39251833 27.40895235 47.15340923 28 52 C25.24269045 50.62134522 25.02094426 48.70437913 23.91796875 45.9609375 C22.96566212 43.92664844 21.84972716 42.29152975 20.5 40.5 C18.51554946 37.83449543 17.17566096 35.26431126 15.9453125 32.16015625 C12.99532359 25.41906588 9.42849441 18.87120506 5 13 C3.98034573 10.67518826 2.97940398 8.34205301 2 6 C1.34 5.01 0.68 4.02 0 3 C0 2.01 0 1.02 0 0 Z " fill="#0BB6C9" transform="translate(98,49)"/>
<path d="M0 0 C4.302317 -0.56823055 6.3131706 -0.46762853 9.9375 2 C10.618125 2.66 11.29875 3.32 12 4 C11.01 4 10.02 4 9 4 C9.061875 4.78375 9.12375 5.5675 9.1875 6.375 C9.125625 7.24125 9.06375 8.1075 9 9 C5.76746204 11.15502531 4.74849077 11.46856135 1 11 C-0.8125 9.8125 -0.8125 9.8125 -2 8 C-2.46856135 4.25150923 -2.15502531 3.23253796 0 0 Z " fill="#C6E5EA" transform="translate(53,169)"/>
<path d="M0 0 C1.65 0 3.3 0 5 0 C5.33 0.99 5.66 1.98 6 3 C7.87387216 3.80212628 7.87387216 3.80212628 10.0625 4.1875 C10.79597656 4.34605469 11.52945313 4.50460938 12.28515625 4.66796875 C12.85105469 4.77753906 13.41695312 4.88710938 14 5 C14.02692484 7.29160319 14.04636124 9.58329546 14.0625 11.875 C14.07410156 13.15117188 14.08570313 14.42734375 14.09765625 15.7421875 C14 19 14 19 13 21 C12.01 20.67 11.02 20.34 10 20 C10.66 20 11.32 20 12 20 C12 18.68 12 17.36 12 16 C11.34 16 10.68 16 10 16 C8 14 8 14 7.1875 11.5 C6.20271537 8.76446304 6.20271537 8.76446304 3.375 7.6875 C2.59125 7.460625 1.8075 7.23375 1 7 C1.66 6.34 2.32 5.68 3 5 C3 3.68 3 2.36 3 1 C2.01 0.67 1.02 0.34 0 0 Z " fill="#D2EDF1" transform="translate(138,29)"/>
<path d="M0 0 C8.37223205 7.91622813 13.03715069 18.77959537 18 29 C19.3789615 31.70582118 20.7620935 34.40933914 22.15234375 37.109375 C23 39 23 39 23 41 C21.125 40.82421875 21.125 40.82421875 19 40 C17.875 37.70703125 17.875 37.70703125 17 34.8125 C15.51667547 30.30435682 13.74494945 26.89605729 11 23 C10.26859269 21.31458315 9.53845629 19.62824474 8.84765625 17.92578125 C6.7224029 13.09744069 3.95395969 8.54607261 1.1875 4.0625 C0 2 0 2 0 0 Z " fill="#0AB5C8" transform="translate(126,101)"/>
<path d="M0 0 C2.66648371 3.33105349 4.6669681 6.87197848 6.6875 10.625 C7.31011719 11.77226562 7.93273437 12.91953125 8.57421875 14.1015625 C10 17 10 17 10 19 C-3.53 19 -17.06 19 -31 19 C-31 18.67 -31 18.34 -31 18 C-18.79 17.67 -6.58 17.34 6 17 C5.01 15.35 4.02 13.7 3 12 C0.98818247 7.82734142 -0.42425834 4.66684172 0 0 Z " fill="#A0DDE4" transform="translate(166,139)"/>
<path d="M0 0 C1.65 0 3.3 0 5 0 C4.9669712 2.10483555 4.89755454 4.2091243 4.8125 6.3125 C4.77769531 7.48425781 4.74289063 8.65601563 4.70703125 9.86328125 C4 13 4 13 1.51171875 14.79296875 C0.68285156 15.19128906 -0.14601563 15.58960938 -1 16 C-1.33 16.66 -1.66 17.32 -2 18 C-3.65 18 -5.3 18 -7 18 C-7.33 16.68 -7.66 15.36 -8 14 C-7.071875 13.5875 -6.14375 13.175 -5.1875 12.75 C-1.27615387 10.62219607 -1.27615387 10.62219607 1 7 C0.77131906 3.31184707 0.77131906 3.31184707 0 0 Z " fill="#E6F6F9" transform="translate(64,36)"/>
<path d="M0 0 C0.99 0.33 1.98 0.66 3 1 C3.25706972 6.91260345 2.2982126 12.23918159 1 18 C-1.03770729 15.39593854 -2.71804689 12.83642657 -4.1875 9.875 C-4.53167969 9.19179687 -4.87585938 8.50859375 -5.23046875 7.8046875 C-6 6 -6 6 -6 4 C-4.02 3.67 -2.04 3.34 0 3 C0 2.01 0 1.02 0 0 Z " fill="#10D0E4" transform="translate(164,118)"/>
<path d="M0 0 C1.36658559 2.73317118 0.94265989 4.65223977 0.6875 7.6875 C0.60886719 8.70199219 0.53023437 9.71648437 0.44921875 10.76171875 C0 14 0 14 -1.03515625 17.3984375 C-2.10596848 21.39555845 -2.19808628 24.8081249 -2.125 28.9375 C-2.11597656 29.62134766 -2.10695312 30.30519531 -2.09765625 31.00976562 C-2.07438958 32.67333287 -2.03853167 34.33671631 -2 36 C-1.67 32.7 -1.34 29.4 -1 26 C-0.67 26 -0.34 26 0 26 C0 32.27 0 38.54 0 45 C-0.99 45 -1.98 45 -3 45 C-4.55595453 40.33213642 -4.18447103 35.63876541 -4.1875 30.75 C-4.19974609 29.72519531 -4.21199219 28.70039062 -4.22460938 27.64453125 C-4.23547203 22.01767705 -3.76204663 17.3937458 -2 12 C-1.75783158 10.04767314 -1.56529403 8.08813382 -1.4375 6.125 C-1.10218978 1.10218978 -1.10218978 1.10218978 0 0 Z " fill="#10C5D8" transform="translate(36,77)"/>
<path d="M0 0 C2.51777247 0.97395314 3.74624025 1.49248049 4.9765625 3.953125 C5.19054687 4.71109375 5.40453125 5.4690625 5.625 6.25 C5.84414062 6.99765625 6.06328125 7.7453125 6.2890625 8.515625 C6.64097656 9.74539062 6.64097656 9.74539062 7 11 C7.34804687 11.9178125 7.69609375 12.835625 8.0546875 13.78125 C9.38849711 18.32281659 9.42305489 22.72438995 9.56640625 27.4296875 C9.60436407 31.67278376 9.60436407 31.67278376 12 35 C10.35 35 8.7 35 7 35 C6.95512451 34.42145264 6.91024902 33.84290527 6.86401367 33.24682617 C6.14533871 15.85701636 6.14533871 15.85701636 0 0 Z " fill="#0BC1D4" transform="translate(150,87)"/>
<path d="M0 0 C3.09167049 -0.21079572 5.42018118 -0.23506168 8.3125 0.9375 C10.28455948 3.34779492 10.15950982 4.04970918 10.25 7.0625 C10.63220499 13.53875127 14.90300704 17.32907483 19 22 C19.33 22.66 19.66 23.32 20 24 C18.65686601 23.35330586 17.32608822 22.68096422 16 22 C15.154375 21.566875 14.30875 21.13375 13.4375 20.6875 C10.46533175 18.62984506 9.42108568 17.33955135 8 14 C7.47462161 10.67430378 7.1892249 7.36037324 7 4 C4.36 3.34 1.72 2.68 -1 2 C-0.67 1.34 -0.34 0.68 0 0 Z " fill="#A9DAE1" transform="translate(97,131)"/>
<path d="M0 0 C0.33 0 0.66 0 1 0 C1 1.98 1 3.96 1 6 C1.66 6 2.32 6 3 6 C3 7.32 3 8.64 3 10 C2.05125 10.45375 1.1025 10.9075 0.125 11.375 C-3.00313679 12.80238254 -3.00313679 12.80238254 -5 15 C-6.32 15 -7.64 15 -9 15 C-9.66 13.35 -10.32 11.7 -11 10 C-9.3603125 9.62875 -9.3603125 9.62875 -7.6875 9.25 C-3.88668091 7.96158675 -2.82618485 7.44946027 -1 4 C-0.29485154 1.85266073 -0.29485154 1.85266073 0 0 Z " fill="#E8F6F9" transform="translate(147,39)"/>
<path d="M0 0 C0.66 0 1.32 0 2 0 C2.66 1.65 3.32 3.3 4 5 C6.64 5 9.28 5 12 5 C12.268125 5.928125 12.53625 6.85625 12.8125 7.8125 C13.91148371 10.76240366 14.62418561 12.05615186 17 14 C13.28400809 14.20086443 12.22791555 14.1519437 9 12 C8.67 11.01 8.34 10.02 8 9 C6.88625 8.87625 5.7725 8.7525 4.625 8.625 C1 8 1 8 -1 6 C-1.1875 3.4375 -1.1875 3.4375 -1 1 C-0.67 0.67 -0.34 0.34 0 0 Z " fill="#09AEC0" transform="translate(126,167)"/>
<path d="M0 0 C0.33 0 0.66 0 1 0 C1.28875 1.134375 1.5775 2.26875 1.875 3.4375 C2.24625 4.613125 2.6175 5.78875 3 7 C3.66 7.33 4.32 7.66 5 8 C5.53699151 15.11513755 3.69707634 20.44995746 1 27 C0.67 27 0.34 27 0 27 C0.2475 25.515 0.2475 25.515 0.5 24 C1.18404668 19.10262229 1.86971224 14.09754128 -0.0625 9.4375 C-1.36017882 6.06353507 -0.68363754 3.48655143 0 0 Z " fill="#0BB1C3" transform="translate(167,108)"/>
<path d="M0 0 C1 2 1 2 0.22265625 4.3828125 C-0.35162109 5.74019531 -0.35162109 5.74019531 -0.9375 7.125 C-1.31777344 8.03507812 -1.69804688 8.94515625 -2.08984375 9.8828125 C-2.39019531 10.58148438 -2.69054687 11.28015625 -3 12 C-3.66 12 -4.32 12 -5 12 C-5.19335938 12.60328125 -5.38671875 13.2065625 -5.5859375 13.828125 C-5.84632812 14.62734375 -6.10671875 15.4265625 -6.375 16.25 C-6.63023438 17.03890625 -6.88546875 17.8278125 -7.1484375 18.640625 C-8.22475188 21.62270704 -9.19086284 24.22457688 -11.5 26.4375 C-13.39903312 28.4156595 -14.09899031 30.43558782 -15 33 C-15.66 33 -16.32 33 -17 33 C-15.42195846 27.39523177 -12.73583615 22.64949374 -9.875 17.625 C-9.40707031 16.79355469 -8.93914062 15.96210937 -8.45703125 15.10546875 C-7.30929451 13.06765046 -6.15686718 11.03264431 -5 9 C-4.34 9 -3.68 9 -3 9 C-2.87625 8.071875 -2.7525 7.14375 -2.625 6.1875 C-2 3 -2 3 0 0 Z " fill="#0CC2D5" transform="translate(87,80)"/>
<path d="M0 0 C6.81761894 -0.0252689 13.63522589 -0.04283244 20.45288086 -0.05493164 C22.77417451 -0.05997333 25.09546497 -0.06680651 27.41674805 -0.07543945 C30.74528795 -0.08751225 34.07378602 -0.09322979 37.40234375 -0.09765625 C38.44712387 -0.10281754 39.49190399 -0.10797882 40.56834412 -0.11329651 C41.52926468 -0.11337204 42.49018524 -0.11344757 43.48022461 -0.11352539 C44.33071884 -0.115746 45.18121307 -0.11796661 46.05747986 -0.12025452 C48 0 48 0 49 1 C49.04063832 2.66617115 49.042721 4.33388095 49 6 C48.01 5.67 47.02 5.34 46 5 C46 4.01 46 3.02 46 2 C30.82 1.67 15.64 1.34 0 1 C0 0.67 0 0.34 0 0 Z " fill="#02A5B7" transform="translate(68,124)"/>
<path d="M0 0 C0.99 0.33 1.98 0.66 3 1 C5.94964113 1.085409 8.87503019 1.11582927 11.82421875 1.09765625 C12.68561966 1.0962413 13.54702057 1.09482635 14.43452454 1.09336853 C17.18555169 1.0877714 19.93649744 1.07521946 22.6875 1.0625 C24.5527332 1.05748463 26.41796767 1.05292179 28.28320312 1.04882812 C32.85550011 1.03780292 37.42773625 1.02054027 42 1 C41.67 1.66 41.34 2.32 41 3 C29.78 3.33 18.56 3.66 7 4 C6.67 4.66 6.34 5.32 6 6 C3.36 6 0.72 6 -2 6 C-0.68 5.01 0.64 4.02 2 3 C1.34 2.01 0.68 1.02 0 0 Z " fill="#0CC2D6" transform="translate(130,158)"/>
<path d="M0 0 C0 2.97 0 5.94 0 9 C-0.78375 9.28875 -1.5675 9.5775 -2.375 9.875 C-5.09671632 10.84912254 -5.09671632 10.84912254 -7 13 C-7 9.37 -7 5.74 -7 2 C-2 0 -2 0 0 0 Z " fill="#EAF8FB" transform="translate(47,76)"/>
<path d="M0 0 C2.5625 0.1875 2.5625 0.1875 4.5625 2.1875 C4.5625 3.5075 4.5625 4.8275 4.5625 6.1875 C5.5525 6.1875 6.5425 6.1875 7.5625 6.1875 C7.2325 6.8475 6.9025 7.5075 6.5625 8.1875 C0.5078125 8.3828125 0.5078125 8.3828125 -1.4375 8.1875 C-3.4375 6.1875 -3.4375 6.1875 -3.625 3.625 C-3.37291261 0.34786389 -3.27713611 0.25208739 0 0 Z " fill="#E9F7FA" transform="translate(131.4375,164.8125)"/>
<path d="M0 0 C0.99 0.66 1.98 1.32 3 2 C-2.40166205 9.41828255 -2.40166205 9.41828255 -5.25 12.1875 C-7.28445209 14.29461109 -8.08082307 16.24246922 -9 19 C-9.33 19 -9.66 19 -10 19 C-10 17.35 -10 15.7 -10 14 C-11.32 13.67 -12.64 13.34 -14 13 C-13.27425781 12.96003906 -12.54851562 12.92007813 -11.80078125 12.87890625 C-7.93671447 11.66633299 -6.38769314 9.14077621 -4.1875 5.9375 C-3.78080078 5.36966797 -3.37410156 4.80183594 -2.95507812 4.21679688 C-1.95744838 2.82011523 -0.97698467 1.41120009 0 0 Z " fill="#CEECF1" transform="translate(93,142)"/>
<path d="M0 0 C0.66 0 1.32 0 2 0 C4.31 4.62 6.62 9.24 9 14 C6.69 14 4.38 14 2 14 C0.4087311 9.126739 -0.21192221 5.19209404 0 0 Z " fill="#17A8B7" transform="translate(99,95)"/>
<path d="M0 0 C0.99 0.33 1.98 0.66 3 1 C2.06398754 2.41764994 1.1261208 3.83407568 0.1875 5.25 C-0.33457031 6.03890625 -0.85664062 6.8278125 -1.39453125 7.640625 C-1.92433594 8.41921875 -2.45414063 9.1978125 -3 10 C-3.5053125 10.7528125 -4.010625 11.505625 -4.53125 12.28125 C-6 14 -6 14 -8.6875 14.25 C-9.450625 14.1675 -10.21375 14.085 -11 14 C-10.34 13.67 -9.68 13.34 -9 13 C-8.71125 12.278125 -8.4225 11.55625 -8.125 10.8125 C-6.27970388 6.19925969 -4.15255316 2.76836877 0 0 Z " fill="#13BFD1" transform="translate(52,61)"/>
<path d="M0 0 C6.15234375 -0.09765625 6.15234375 -0.09765625 8 0 C9 1 9 1 9.125 3.5 C9 6 9 6 8 7 C6.47480724 6.91062197 4.95318071 6.75462854 3.4375 6.5625 C2.19806641 6.40974609 2.19806641 6.40974609 0.93359375 6.25390625 C0.29550781 6.17011719 -0.34257813 6.08632812 -1 6 C-0.67 4.02 -0.34 2.04 0 0 Z " fill="#E9F7FA" transform="translate(62,166)"/>
<path d="M0 0 C2.31 0 4.62 0 7 0 C5.68 0.33 4.36 0.66 3 1 C3 2.65 3 4.3 3 6 C5.47266765 5.65555119 5.47266765 5.65555119 8 5 C8.33 4.34 8.66 3.68 9 3 C9.3125 5.3125 9.3125 5.3125 9 8 C6.5 9.8125 6.5 9.8125 4 11 C4 10.34 4 9.68 4 9 C2.68 8.67 1.36 8.34 0 8 C-1.125 2.25 -1.125 2.25 0 0 Z " fill="#C0E9EF" transform="translate(169,107)"/>
<path d="M0 0 C2.33944736 0.28730055 4.6739143 0.61936779 7 1 C6.67 3.97 6.34 6.94 6 10 C5.67 9.34 5.34 8.68 5 8 C3.34178227 7.62690101 1.67422986 7.29299023 0 7 C-1 6 -1 6 -1.125 3.5 C-1 1 -1 1 0 0 Z " fill="#EAF8FB" transform="translate(152,77)"/>
<path d="M0 0 C3.1305429 -0.39964378 5.13083761 -0.52149743 7.875 1.125 C9.4682099 3.78034983 9.20214032 5.96789518 9 9 C7.02 9.99 7.02 9.99 5 11 C4.34 8.69 3.68 6.38 3 4 C1.35 3.67 -0.3 3.34 -2 3 C-1.34 2.01 -0.68 1.02 0 0 Z " fill="#0EADBE" transform="translate(137,36)"/>
<path d="M0 0 C0.556875 0.7115625 0.556875 0.7115625 1.125 1.4375 C3.61993743 3.51661453 5.83288699 3.55797745 9 4 C9.02692484 6.29160319 9.04636124 8.58329546 9.0625 10.875 C9.07410156 12.15117188 9.08570312 13.42734375 9.09765625 14.7421875 C9 18 9 18 8 20 C7.01 19.67 6.02 19.34 5 19 C5.33 14.71 5.66 10.42 6 6 C3.03 5.505 3.03 5.505 0 5 C-0.5625 3.0625 -0.5625 3.0625 -1 1 C-0.67 0.67 -0.34 0.34 0 0 Z " fill="#BBDDE2" transform="translate(62,30)"/>
<path d="M0 0 C0.66 0 1.32 0 2 0 C2.20625 1.11375 2.4125 2.2275 2.625 3.375 C3.61628301 7.26599195 3.61628301 7.26599195 7.125 8.4375 C8.07375 8.623125 9.0225 8.80875 10 9 C9.67 9.66 9.34 10.32 9 11 C2.9453125 11.1953125 2.9453125 11.1953125 1 11 C-1 9 -1 9 -1.23046875 7.08984375 C-1.11111111 1.11111111 -1.11111111 1.11111111 0 0 Z " fill="#0FB5C7" transform="translate(49,171)"/>
<path d="M0 0 C2 3 2 3 1.625 5.6875 C1.41875 6.450625 1.2125 7.21375 1 8 C0.34 7.34 -0.32 6.68 -1 6 C-3.60280568 6.32041397 -3.60280568 6.32041397 -6 7 C-5.95875 6.21625 -5.9175 5.4325 -5.875 4.625 C-5.71271266 1.83883881 -5.71271266 1.83883881 -8 0 C-5.06791253 -1.46604374 -3.11702298 -0.77925574 0 0 Z " fill="#7AD1DC" transform="translate(178,106)"/>
<path d="M0 0 C0.66 0 1.32 0 2 0 C2.56377536 5.26190338 2.38750139 8.06092406 -0.8125 12.375 C-2.80178837 14.84073522 -4.31501051 16.210007 -7 18 C-5.85058741 15.70117482 -4.68637558 13.43547605 -3.4375 11.1875 C-1.88481427 7.74458817 -1.4389564 4.73112938 -1 1 C-0.67 0.67 -0.34 0.34 0 0 Z " fill="#0CB2C4" transform="translate(91,135)"/>
<path d="M0 0 C1.65 0 3.3 0 5 0 C5.33 0.99 5.66 1.98 6 3 C7.87387216 3.80212628 7.87387216 3.80212628 10.0625 4.1875 C10.79597656 4.34605469 11.52945313 4.50460938 12.28515625 4.66796875 C12.85105469 4.77753906 13.41695312 4.88710938 14 5 C14.02692484 7.29160319 14.04636124 9.58329546 14.0625 11.875 C14.07410156 13.15117188 14.08570313 14.42734375 14.09765625 15.7421875 C14 19 14 19 13 21 C12.01 20.67 11.02 20.34 10 20 C10.66 20 11.32 20 12 20 C11.67 15.71 11.34 11.42 11 7 C9.2984375 6.3503125 9.2984375 6.3503125 7.5625 5.6875 C6.386875 5.130625 5.21125 4.57375 4 4 C3.67 3.01 3.34 2.02 3 1 C2.01 0.67 1.02 0.34 0 0 Z " fill="#ACDBE1" transform="translate(138,29)"/>
<path d="M0 0 C4.455 0.99 4.455 0.99 9 2 C9.33 3.32 9.66 4.64 10 6 C11.2375 6.144375 12.475 6.28875 13.75 6.4375 C16.56504499 6.78688502 19.2701497 7.20379366 22 8 C20 10 20 10 17.9765625 10.15234375 C11.48973144 9.55969307 11.48973144 9.55969307 8.8125 6.5 C8.214375 5.675 7.61625 4.85 7 4 C3.86136296 3.11406002 3.86136296 3.11406002 1 3 C0.67 2.01 0.34 1.02 0 0 Z " fill="#0BBFD3" transform="translate(125,173)"/>
<path d="M0 0 C0.66 0.66 1.32 1.32 2 2 C0.02 6.29 -1.96 10.58 -4 15 C0.29 15 4.58 15 9 15 C9 15.33 9 15.66 9 16 C4.05 16 -0.9 16 -6 16 C-5.16583712 11.82918558 -4.21232487 8.96469139 -2.4375 5.1875 C-1.98246094 4.21167969 -1.52742188 3.23585938 -1.05859375 2.23046875 C-0.70925781 1.49441406 -0.35992187 0.75835937 0 0 Z " fill="#D6E9EC" transform="translate(97,95)"/>
<path d="M0 0 C0.99 0.33 1.98 0.66 3 1 C2.67 2.65 2.34 4.3 2 6 C3.65 6 5.3 6 7 6 C6.67 7.32 6.34 8.64 6 10 C1.55063291 10.36075949 1.55063291 10.36075949 -0.8125 8.8125 C-2.40199375 6.3864306 -2.36487512 4.84602594 -2 2 C-1.34 1.34 -0.68 0.68 0 0 Z " fill="#CAE8ED" transform="translate(53,170)"/>
<path d="M0 0 C0.99 0.33 1.98 0.66 3 1 C2.12269491 3.70502403 1.28331029 5.68400006 -0.625 7.8125 C-4.15983819 9.5799191 -7.07418669 9.19629067 -11 9 C-11 8.67 -11 8.34 -11 8 C-9.6078125 7.6596875 -9.6078125 7.6596875 -8.1875 7.3125 C-4.44866356 5.77297911 -3.79760571 4.50533113 -2 1 C-1.34 0.67 -0.68 0.34 0 0 Z " fill="#12BCCE" transform="translate(76,155)"/>
<path d="M0 0 C2.74086056 -0.22223194 4.43963721 -0.34781139 6.8125 1.125 C8.49106106 3.77535957 8.20450238 5.93246424 8 9 C7.67 7.68 7.34 6.36 7 5 C6.34 5 5.68 5 5 5 C4.67 5.99 4.34 6.98 4 8 C2.68 7.67 1.36 7.34 0 7 C0.375 5.0625 0.375 5.0625 1 3 C1.66 2.67 2.32 2.34 3 2 C2.01 1.34 1.02 0.68 0 0 Z " fill="#AADDE4" transform="translate(24,105)"/>
<path d="M0 0 C3.00617269 3.00617269 2.59585316 5.82381598 3 10 C3.66 10 4.32 10 5 10 C5 17.26 5 24.52 5 32 C4.67 32 4.34 32 4 32 C3.96261719 30.99582031 3.92523438 29.99164063 3.88671875 28.95703125 C3.52166478 20.90308979 2.67654175 13.41245825 0.62109375 5.57421875 C0 3 0 3 0 0 Z " fill="#CFECF1" transform="translate(158,88)"/>
<path d="M0 0 C0.70125 0.639375 1.4025 1.27875 2.125 1.9375 C5.22841233 4.16386102 7.24620139 4.65080943 11 5 C11 6.98 11 8.96 11 11 C9.35 11 7.7 11 6 11 C5.62875 9.88625 5.62875 9.88625 5.25 8.75 C3.90634806 5.79396573 2.31013315 4.23312872 0 2 C0 1.34 0 0.68 0 0 Z " fill="#C9E4E9" transform="translate(110,150)"/>
<path d="M0 0 C0.33 0 0.66 0 1 0 C1 6.27 1 12.54 1 19 C0.01 19 -0.98 19 -2 19 C-2.33 16.03 -2.66 13.06 -3 10 C-2.34 10 -1.68 10 -1 10 C-0.67 6.7 -0.34 3.4 0 0 Z " fill="#16BDCF" transform="translate(35,103)"/>
<path d="M0 0 C5.625 -0.25 5.625 -0.25 9 2 C9.33 1.34 9.66 0.68 10 0 C10 0.66 10 1.32 10 2 C11.65 2 13.3 2 15 2 C14.01 3.485 14.01 3.485 13 5 C10 5.3125 10 5.3125 7 5 C6.34 4.34 5.68 3.68 5 3 C3.35008418 2.29289322 1.68437744 1.62056011 0 1 C0 0.67 0 0.34 0 0 Z " fill="#14BBCD" transform="translate(47,52)"/>
<path d="M0 0 C0.33 1.32 0.66 2.64 1 4 C8.92 4 16.84 4 25 4 C24.34 5.65 23.68 7.3 23 9 C22.67 7.68 22.34 6.36 22 5 C14.74 5 7.48 5 0 5 C0 3.35 0 1.7 0 0 Z " fill="#C8E2E7" transform="translate(48,139)"/>
<path d="M0 0 C0.33 0 0.66 0 1 0 C2.32 5.94 3.64 11.88 5 18 C3.68 17.67 2.36 17.34 1 17 C-0.13480527 13.39006828 -0.10015767 10.0157673 -0.0625 6.25 C-0.05347656 5.07953125 -0.04445313 3.9090625 -0.03515625 2.703125 C-0.02355469 1.81109375 -0.01195313 0.9190625 0 0 Z " fill="#B1DEE4" transform="translate(27,117)"/>
<path d="M0 0 C2 2 2 2 2.875 4.375 C4.12907507 7.30117515 5.65266093 8.88739484 8 11 C7.01 12.485 7.01 12.485 6 14 C1.125 10.25 1.125 10.25 0 8 C-0.13415472 5.3276379 -0.04318541 2.67749512 0 0 Z " fill="#0CABBC" transform="translate(148,76)"/>
<path d="M0 0 C0.2475 0.598125 0.495 1.19625 0.75 1.8125 C1.83473419 4.14741896 1.83473419 4.14741896 4.125 5.1875 C6 7 6 7 6.2578125 9.1875 C6.25067772 11.47062861 6.17179759 13.72368193 6 16 C3.59027489 13.59027489 2.49053393 11.04587368 1 8 C0.67 7.67 0.34 7.34 0 7 C-0.04092937 4.66702567 -0.04241723 2.33294775 0 0 Z " fill="#0AADBE" transform="translate(19,109)"/>
<path d="M0 0 C0.66 0 1.32 0 2 0 C4.71391278 4.77357872 6.56561146 8.34388537 6 14 C3.03340143 10.44008172 0.618652 6.34777457 -1 2 C-0.67 1.34 -0.34 0.68 0 0 Z " fill="#C4E2E7" transform="translate(100,64)"/>
<path d="M0 0 C0.66 0.33 1.32 0.66 2 1 C1.2884375 1.495 1.2884375 1.495 0.5625 2 C-1.85791615 5.09813267 -1.68198917 8.12026792 -2 12 C-2.33 12 -2.66 12 -3 12 C-3 9.69 -3 7.38 -3 5 C-3.99 5.495 -3.99 5.495 -5 6 C-5.40729228 8.32156597 -5.74438677 10.6568787 -6 13 C-6.33 13 -6.66 13 -7 13 C-7.48945148 5.65822785 -7.48945148 5.65822785 -5.1875 2.5625 C-3 1 -3 1 0 0 Z " fill="#19C3D5" transform="translate(96,130)"/>
<path d="M0 0 C0.33 0.66 0.66 1.32 1 2 C1.66 2 2.32 2 3 2 C3 5.96 3 9.92 3 14 C2.01 14 1.02 14 0 14 C0 9.38 0 4.76 0 0 Z " fill="#11A9B9" transform="translate(46,37)"/>
<path d="M0 0 C0.66 0 1.32 0 2 0 C2.226875 1.11375 2.45375 2.2275 2.6875 3.375 C3.60623658 7.16038373 3.60623658 7.16038373 6.625 8.4375 C7.40875 8.623125 8.1925 8.80875 9 9 C7 10 5 11 3 12 C2.01 11.34 1.02 10.68 0 10 C0.66 10 1.32 10 2 10 C1.34 9.01 0.68 8.02 0 7 C-0.07905064 4.66800612 -0.08798769 2.33167378 0 0 Z " fill="#B8DFE4" transform="translate(52,39)"/>
<path d="M0 0 C0.33 0.66 0.66 1.32 1 2 C1.66 2 2.32 2 3 2 C3 5.96 3 9.92 3 14 C2.01 14 1.02 14 0 14 C0 9.38 0 4.76 0 0 Z " fill="#14A7B7" transform="translate(127,37)"/>
<path d="M0 0 C1.66611905 -0.042721 3.33382885 -0.04063832 5 0 C6 1 6 1 6.0625 3.5625 C6.041875 4.366875 6.02125 5.17125 6 6 C4.33388095 6.042721 2.66617115 6.04063832 1 6 C0 5 0 5 -0.0625 2.4375 C-0.041875 1.633125 -0.02125 0.82875 0 0 Z " fill="#0CCFE4" transform="translate(54,40)"/>
<path d="M0 0 C0.66 0 1.32 0 2 0 C2.625 3.375 2.625 3.375 3 7 C1 9 1 9 -1.5 9.3125 C-2.7375 9.1578125 -2.7375 9.1578125 -4 9 C-4.66 8.01 -5.32 7.02 -6 6 C-4.02 5.67 -2.04 5.34 0 5 C0 3.35 0 1.7 0 0 Z " fill="#D4EDF1" transform="translate(145,171)"/>
<path d="M0 0 C5.75 0.75 5.75 0.75 8 3 C7.75 6.0625 7.75 6.0625 7 9 C6.01 9.495 6.01 9.495 5 10 C4.731875 8.906875 4.46375 7.81375 4.1875 6.6875 C3.12336261 3.38307337 2.65345336 2.05039578 0 0 Z " fill="#17A7B6" transform="translate(58,36)"/>
<path d="M0 0 C0.268125 0.928125 0.53625 1.85625 0.8125 2.8125 C1.91148371 5.76240366 2.62418561 7.05615186 5 9 C2.625 9.125 2.625 9.125 0 9 C-2 7 -2 7 -2.125 4.375 C-2.08375 3.59125 -2.0425 2.8075 -2 2 C-3.65 2 -5.3 2 -7 2 C-7 1.67 -7 1.34 -7 1 C-2.25 0 -2.25 0 0 0 Z " fill="#20B3C3" transform="translate(138,172)"/>
<path d="M0 0 C0.66 0 1.32 0 2 0 C0.23570801 4.97209562 -2.3939166 9.43438061 -5 14 C-5.66 14 -6.32 14 -7 14 C-6.34 12.02 -5.68 10.04 -5 8 C-4.34 8 -3.68 8 -3 8 C-2.814375 6.8553125 -2.814375 6.8553125 -2.625 5.6875 C-2 3 -2 3 0 0 Z " fill="#0CBFD2" transform="translate(31,137)"/>
<path d="M0 0 C0.99 0 1.98 0 3 0 C2.51452795 4.36924844 1.21218243 6.07983415 -2 9 C-2.99 10.485 -2.99 10.485 -4 12 C-4.66 12 -5.32 12 -6 12 C-6 11.34 -6 10.68 -6 10 C-5.34 10 -4.68 10 -4 10 C-3.79503906 9.36191406 -3.59007813 8.72382812 -3.37890625 8.06640625 C-3.10949219 7.24011719 -2.84007813 6.41382812 -2.5625 5.5625 C-2.29566406 4.73878906 -2.02882813 3.91507812 -1.75390625 3.06640625 C-1 1 -1 1 0 0 Z " fill="#0CBBCD" transform="translate(95,66)"/>
<path d="M0 0 C1.32 0 2.64 0 4 0 C5.125 3.75 5.125 3.75 4 6 C2.35 5.67 0.7 5.34 -1 5 C-0.67 3.35 -0.34 1.7 0 0 Z " fill="#1EB3C3" transform="translate(55,171)"/>
<path d="M0 0 C0.33 0.66 0.66 1.32 1 2 C0.04060332 3.69036558 -0.96642853 5.35394174 -2 7 C-2.69822617 8.65369357 -3.37498605 10.31727014 -4 12 C-5.65 12 -7.3 12 -9 12 C-6 8 -3 4 0 0 Z " fill="#11C2D5" transform="translate(88,143)"/>
<path d="M0 0 C0.99 0.33 1.98 0.66 3 1 C0.36 5.62 -2.28 10.24 -5 15 C-6 12 -6 12 -4.78515625 9.08203125 C-4.21667969 8.00308594 -3.64820312 6.92414062 -3.0625 5.8125 C-2.49660156 4.72582031 -1.93070312 3.63914063 -1.34765625 2.51953125 C-0.90292969 1.68808594 -0.45820312 0.85664062 0 0 Z " fill="#CCE7EC" transform="translate(97,46)"/>
<path d="M0 0 C3.32993034 3.82941989 5.05324525 8.37522222 7 13 C3.94877405 11.66981679 3.08362562 11.13439831 1.25 8.1875 C0.05271022 5.13441107 -0.28472808 3.22691821 0 0 Z " fill="#B2D9DE" transform="translate(135,81)"/>
<path d="M0 0 C1.65 0 3.3 0 5 0 C5 1.65 5 3.3 5 5 C3.0625 5.5625 3.0625 5.5625 1 6 C0 5 0 5 -0.0625 2.4375 C-0.041875 1.633125 -0.02125 0.82875 0 0 Z " fill="#0DD0E5" transform="translate(136,40)"/>
<path d="M0 0 C2.64 0.33 5.28 0.66 8 1 C6 4 6 4 2.875 4.6875 C1.92625 4.790625 0.9775 4.89375 0 5 C0 3.35 0 1.7 0 0 Z " fill="#19BBCC" transform="translate(62,173)"/>
<path d="M0 0 C1.32 0 2.64 0 4 0 C4.66 2.97 5.32 5.94 6 9 C3 7.3125 3 7.3125 0 5 C-0.375 2.25 -0.375 2.25 0 0 Z " fill="#C4E5EA" transform="translate(142,61)"/>
<path d="M0 0 C0.33 0 0.66 0 1 0 C1.309375 0.94875 1.61875 1.8975 1.9375 2.875 C2.87394742 5.86080408 2.87394742 5.86080408 4 8 C2.35 8.33 0.7 8.66 -1 9 C-1.625 6.1875 -1.625 6.1875 -2 3 C-1.34 2.01 -0.68 1.02 0 0 Z " fill="#E9F7FA" transform="translate(131,41)"/>
<path d="M0 0 C1.98 0.495 1.98 0.495 4 1 C3.67 2.65 3.34 4.3 3 6 C1.68 5.67 0.36 5.34 -1 5 C-0.67 3.35 -0.34 1.7 0 0 Z " fill="#1FB5C5" transform="translate(142,171)"/>
<path d="M0 0 C0.99 0 1.98 0 3 0 C5.15305957 3.85756507 6.39253254 6.55129785 6 11 C3.52140092 8.7991151 2.38789634 6.93627031 1.3125 3.8125 C1.06113281 3.09707031 0.80976562 2.38164063 0.55078125 1.64453125 C0.36902344 1.10183594 0.18726562 0.55914062 0 0 Z " fill="#C3DFE4" transform="translate(114,46)"/>
<path d="M0 0 C2.01822917 0.06510417 4.03645833 0.13020833 6.0546875 0.1953125 C5.7246875 2.5053125 5.3946875 4.8153125 5.0546875 7.1953125 C4.77625 6.23625 4.77625 6.23625 4.4921875 5.2578125 C3.11222694 2.77405037 3.11222694 2.77405037 -0.5703125 2.4453125 C-1.6840625 2.3628125 -2.7978125 2.2803125 -3.9453125 2.1953125 C-1.9453125 0.1953125 -1.9453125 0.1953125 0 0 Z " fill="#CCE6EA" transform="translate(66.9453125,163.8046875)"/>
<path d="M0 0 C5.625 -0.25 5.625 -0.25 9 2 C9.1875 5.125 9.1875 5.125 9 8 C8.835 7.38125 8.67 6.7625 8.5 6.125 C6.09818625 2.72243051 2.99837866 2.77387974 -1 2 C-0.67 1.34 -0.34 0.68 0 0 Z " fill="#C2E1E6" transform="translate(97,131)"/>
<path d="M0 0 C1.32 0 2.64 0 4 0 C3.67 1.65 3.34 3.3 3 5 C2.67 4.01 2.34 3.02 2 2 C1.34 2 0.68 2 0 2 C0 6.29 0 10.58 0 15 C-0.33 15 -0.66 15 -1 15 C-1.02685412 12.68756208 -1.04632841 10.3750373 -1.0625 8.0625 C-1.07410156 6.77472656 -1.08570313 5.48695312 -1.09765625 4.16015625 C-1 1 -1 1 0 0 Z " fill="#14C3D5" transform="translate(45,34)"/>
<path d="M0 0 C0 0.33 0 0.66 0 1 C-0.94875 1.28875 -1.8975 1.5775 -2.875 1.875 C-6.05211578 2.76825109 -6.05211578 2.76825109 -8 5 C-10.625 5.125 -10.625 5.125 -13 5 C-8.49251112 0.34226149 -6.53321609 -0.12098548 0 0 Z " fill="#2AC2D3" transform="translate(62,29)"/>
<path d="M0 0 C0.33 0 0.66 0 1 0 C1.3125 2.3125 1.3125 2.3125 1 5 C-1.5 6.8125 -1.5 6.8125 -4 8 C-4 7.34 -4 6.68 -4 6 C-4.99 6 -5.98 6 -7 6 C-7 5.34 -7 4.68 -7 4 C-5.02 4 -3.04 4 -1 4 C-0.67 2.68 -0.34 1.36 0 0 Z " fill="#DDF1F4" transform="translate(177,110)"/>
<path d="M0 0 C-0.33 2.31 -0.66 4.62 -1 7 C-1.66 6.01 -2.32 5.02 -3 4 C-3.33 5.32 -3.66 6.64 -4 8 C-4.66 8 -5.32 8 -6 8 C-5.6875 5.125 -5.6875 5.125 -5 2 C-2 0 -2 0 0 0 Z " fill="#11C2D5" transform="translate(22,106)"/>
<path d="M0 0 C2 0 2 0 3.625 1.3125 C5 3 5 3 5 6 C3.35 5.67 1.7 5.34 0 5 C-0.5625 3.0625 -0.5625 3.0625 -1 1 C-0.67 0.67 -0.34 0.34 0 0 Z " fill="#0BB2C4" transform="translate(139,63)"/>
<path d="M0 0 C2.74086056 -0.22223194 4.43963721 -0.34781139 6.8125 1.125 C8.49106106 3.77535957 8.20450238 5.93246424 8 9 C6 5.25 6 5.25 6 3 C3.69 2.67 1.38 2.34 -1 2 C-0.67 1.34 -0.34 0.68 0 0 Z " fill="#BCDDE2" transform="translate(141,168)"/>
<path d="M0 0 C2.475 0.99 2.475 0.99 5 2 C5.33 1.34 5.66 0.68 6 0 C6 0.66 6 1.32 6 2 C7.65 1.67 9.3 1.34 11 1 C10.67 1.99 10.34 2.98 10 4 C6.6875 4.25 6.6875 4.25 3 4 C1.0625 2 1.0625 2 0 0 Z " fill="#24B9CA" transform="translate(132,52)"/>
<path d="M0 0 C0.66 0 1.32 0 2 0 C2.0825 0.61875 2.165 1.2375 2.25 1.875 C2.81258459 4.18437567 2.81258459 4.18437567 5.0625 5.25 C5.701875 5.4975 6.34125 5.745 7 6 C2.25 7.125 2.25 7.125 0 6 C0 4.02 0 2.04 0 0 Z " fill="#0DABBB" transform="translate(114,157)"/>
<path d="M0 0 C0.28875 0.61875 0.5775 1.2375 0.875 1.875 C1.93720042 4.13325765 1.93720042 4.13325765 4 6 C6.57061311 6.64767793 6.57061311 6.64767793 9 7 C9 7.33 9 7.66 9 8 C4.545 8.495 4.545 8.495 0 9 C0 6 0 3 0 0 Z " fill="#C4E1E5" transform="translate(133,41)"/>
<path d="M0 0 C0.33 0.99 0.66 1.98 1 3 C0 4 0 4 -2.4375 4.25 C-3.283125 4.1675 -4.12875 4.085 -5 4 C-5.66 3.01 -6.32 2.02 -7 1 C-3.535 0.505 -3.535 0.505 0 0 Z " fill="#DBF0F4" transform="translate(59,176)"/>
<path d="M0 0 C1.65 0 3.3 0 5 0 C4.34 0.66 3.68 1.32 3 2 C2.3574765 4.06874034 2.3574765 4.06874034 2 6 C0.68 5.34 -0.64 4.68 -2 4 C-1.34 2.68 -0.68 1.36 0 0 Z " fill="#17BACC" transform="translate(60,164)"/>
<path d="M0 0 C-0.59861742 2.35171131 -1.26924352 4.6859378 -2 7 C-2.99 7.495 -2.99 7.495 -4 8 C-4 6.35 -4 4.7 -4 3 C-5.32 2.67 -6.64 2.34 -8 2 C-2.25 0 -2.25 0 0 0 Z " fill="#C0E4E9" transform="translate(87,153)"/>
<path d="M0 0 C1.625 1.625 1.625 1.625 3 4 C2.1875 7.25 2.1875 7.25 1 10 C0.67 10 0.34 10 0 10 C-0.19412181 8.52168779 -0.38012131 7.04230684 -0.5625 5.5625 C-0.66691406 4.73878906 -0.77132812 3.91507812 -0.87890625 3.06640625 C-0.91886719 2.38449219 -0.95882812 1.70257813 -1 1 C-0.67 0.67 -0.34 0.34 0 0 Z " fill="#0EA9B9" transform="translate(38,79)"/>
<path d="M0 0 C1.32 0.33 2.64 0.66 4 1 C4.33 2.32 4.66 3.64 5 5 C3.35 5 1.7 5 0 5 C0 3.35 0 1.7 0 0 Z " fill="#E5F5F8" transform="translate(116,156)"/>
<path d="M0 0 C1.32 0.33 2.64 0.66 4 1 C4.33 3.31 4.66 5.62 5 8 C4.67 7.34 4.34 6.68 4 6 C3.34 6 2.68 6 2 6 C1.34 4.02 0.68 2.04 0 0 Z " fill="#C2E1E7" transform="translate(147,108)"/>
<path d="M0 0 C1.32 0.33 2.64 0.66 4 1 C4.33 3.31 4.66 5.62 5 8 C4.67 7.34 4.34 6.68 4 6 C3.34 6 2.68 6 2 6 C1.34 4.02 0.68 2.04 0 0 Z " fill="#C1E0E5" transform="translate(112,89)"/>
<path d="M0 0 C2.92824652 2.92824652 4.27239967 5.2979993 6 9 C4.68 9 3.36 9 2 9 C1.34 6.03 0.68 3.06 0 0 Z " fill="#0AB7CA" transform="translate(99,100)"/>
<path d="M0 0 C-1.28519565 2.86697492 -2.57129254 4.97607712 -5 7 C-5.66 7 -6.32 7 -7 7 C-3.86206897 0 -3.86206897 0 0 0 Z " fill="#16C7DA" transform="translate(58,66)"/>
<path d="M0 0 C1.32 0 2.64 0 4 0 C4 1.65 4 3.3 4 5 C2.68 4.67 1.36 4.34 0 4 C0 2.68 0 1.36 0 0 Z " fill="#EAF5F8" transform="translate(79,156)"/>
<path d="M0 0 C1.65 0 3.3 0 5 0 C4.67 1.32 4.34 2.64 4 4 C2.68 3.67 1.36 3.34 0 3 C0 2.01 0 1.02 0 0 Z " fill="#19B8C9" transform="translate(24,109)"/>
<path d="M0 0 C2.32472205 2.85306797 3.7508258 5.54074837 5 9 C3.0625 8.4375 3.0625 8.4375 1 7 C0.25 3.375 0.25 3.375 0 0 Z " fill="#B6D9DE" transform="translate(130,72)"/>
<path d="M0 0 C0.66 0.99 1.32 1.98 2 3 C1.01 4.98 0.02 6.96 -1 9 C-1.33 9 -1.66 9 -2 9 C-2.25 3.375 -2.25 3.375 0 0 Z " fill="#1DB2C3" transform="translate(72,63)"/>
<path d="M0 0 C3.125 -0.1875 3.125 -0.1875 6 0 C5.01 1.485 5.01 1.485 4 3 C0.875 3.1875 0.875 3.1875 -2 3 C-1.34 2.01 -0.68 1.02 0 0 Z " fill="#1FC3D5" transform="translate(145,50)"/>
<path d="M0 0 C0.66 0 1.32 0 2 0 C2.309375 0.78375 2.61875 1.5675 2.9375 2.375 C3.92875038 4.92330128 3.92875038 4.92330128 5 7 C1.125 6.125 1.125 6.125 0 5 C-0.04063832 3.33382885 -0.042721 1.66611905 0 0 Z " fill="#0DA2B2" transform="translate(126,167)"/>
<path d="M0 0 C-0.33 0.66 -0.66 1.32 -1 2 C-3.64 2 -6.28 2 -9 2 C-4.13793103 -1.24137931 -4.13793103 -1.24137931 0 0 Z " fill="#1FC6D9" transform="translate(137,162)"/>
<path d="M0 0 C0.66 0 1.32 0 2 0 C5 4.38461538 5 4.38461538 5 7 C1.60085025 5.86695008 0.94745549 4.87481525 -1 2 C-0.67 1.34 -0.34 0.68 0 0 Z " fill="#AFDCE3" transform="translate(99,17)"/>
</svg>
